<svg width="135" height="29" viewBox="0 0 135 29" fill="none" xmlns="http://www.w3.org/2000/svg">
<path fill-rule="evenodd" clip-rule="evenodd" d="M128.422 13.2278C128.437 13.2512 128.454 13.273 128.473 13.2931C128.741 13.6143 129.084 13.8662 129.472 14.0271C129.86 14.1881 130.281 14.2534 130.699 14.2176C131.613 14.1737 132.505 13.9189 133.303 13.4734C133.473 13.3819 133.638 13.2807 133.796 13.1703L134.366 12.7867L134.667 13.412L134.571 13.5348C134.254 13.9323 133.897 14.2972 133.507 14.6243C133.095 14.9867 132.651 15.3127 132.182 15.5987C131.748 15.8505 131.28 16.0391 130.792 16.1588C130.282 16.2897 129.758 16.3542 129.231 16.3506C128.69 16.3597 128.15 16.2886 127.629 16.1396C127.184 16.0106 126.774 15.7853 126.427 15.4797C126.136 15.2155 125.877 14.9181 125.657 14.5936C125.441 14.2817 125.269 13.9423 125.144 13.5846C124.769 12.4711 124.713 11.2755 124.982 10.132C125.225 8.99315 125.794 7.94862 126.62 7.12435C127.18 6.57416 127.842 6.13655 128.569 5.83536C129.291 5.54407 130.063 5.39678 130.842 5.40186C131.535 5.40171 132.215 5.58438 132.814 5.93127C133.405 6.28906 133.951 6.71671 134.44 7.20491L134.64 7.39672L128.422 13.2278ZM127.968 12.0002L130.221 9.86344C130.491 9.59483 130.66 9.24319 130.703 8.86601C130.735 8.64316 130.722 8.41627 130.664 8.1985C130.612 8.00743 130.511 7.83302 130.372 7.69211C130.213 7.54961 130.014 7.46094 129.802 7.43892C129.625 7.41692 129.446 7.43395 129.278 7.48879C128.885 7.66352 128.574 7.9803 128.407 8.37497C128.175 8.88917 128.027 9.43697 127.968 9.99771C127.87 10.6616 127.87 11.3363 127.968 12.0002Z" fill="white"/>
<path fill-rule="evenodd" clip-rule="evenodd" d="M119.663 8.17189C119.258 8.17189 118.808 8.64375 118.577 8.91613C118.002 9.63443 117.518 10.4204 117.136 11.2563L117.159 14.0337C117.183 14.3565 117.138 14.6807 117.028 14.9851C116.859 15.3013 116.607 15.5664 116.3 15.7524C116.063 15.9158 115.803 16.045 115.529 16.136C115.218 16.2376 114.896 16.307 114.57 16.3431L114.254 16.3815L114.254 8.07982C114.26 8.01034 114.241 7.94115 114.2 7.88417C114.153 7.84836 114.095 7.82825 114.035 7.82663L113.992 7.82663C113.779 7.84052 113.574 7.90925 113.395 8.02612L113.083 7.05938C113.718 6.54984 114.38 6.07596 115.067 5.63996C115.19 5.56672 115.318 5.50507 115.452 5.45582C115.576 5.41115 115.706 5.3878 115.838 5.38676C116.074 5.38371 116.306 5.4578 116.496 5.59776C116.677 5.73959 116.811 5.93195 116.882 6.15018C117.02 6.67099 117.105 7.20438 117.136 7.74223C117.159 8.09133 117.174 8.4366 117.178 8.7857C117.309 8.58621 117.448 8.40207 117.587 8.19875C117.725 7.99543 117.922 7.76525 118.103 7.54658C118.284 7.33559 118.488 7.13226 118.665 6.92894C118.842 6.72562 119.05 6.54532 119.278 6.34967C119.487 6.1616 119.713 5.99215 119.952 5.84328C120.172 5.70883 120.405 5.59822 120.649 5.51336L120.83 5.46349L121.019 5.41745C121.146 5.39376 121.275 5.38092 121.404 5.37909C121.624 5.37562 121.842 5.42139 122.042 5.51301C122.242 5.60463 122.419 5.73978 122.56 5.9085C122.814 6.22614 122.985 6.60192 123.057 7.00183C123.12 7.29685 123.151 7.59784 123.149 7.89952L123.149 14.2409C123.149 14.4826 123.238 14.5593 123.48 14.471C123.851 14.2997 124.195 14.0762 124.501 13.8074L124.86 14.5439C124.151 15.3112 123.18 16.3316 122.02 16.3316C121.784 16.3328 121.549 16.2839 121.333 16.188C121.116 16.0921 120.922 15.9514 120.765 15.7754C120.433 15.4061 120.249 14.9282 120.248 14.4327L120.248 9.22303C120.25 8.9737 120.188 8.72806 120.067 8.50949C119.987 8.35462 119.849 8.23749 119.682 8.1834L119.663 8.17189Z" fill="white"/>
<path fill-rule="evenodd" clip-rule="evenodd" d="M110.343 14.3629C108.625 16.0777 106.194 16.6646 103.771 16.6646C101.595 16.6646 99.2874 16.0777 97.6078 14.7158C96.8484 14.0894 96.2319 13.3089 95.7995 12.4264C95.367 11.544 95.1286 10.5798 95.1 9.59822C95.0807 9.34119 95.073 9.07649 95.073 8.83097C95.073 6.51003 95.7703 4.22745 97.4845 2.52414C99.0541 1.01071 101.13 0.128128 103.313 0.0459148C103.517 0.0459148 103.725 0.0267334 103.933 0.0267334C109.346 0.0267334 112.624 2.55867 112.624 7.85272C112.624 10.189 112.092 12.6212 110.343 14.3744M98.2434 8.3476C98.2434 11.8501 100.593 15.1992 103.987 15.1992C107.381 15.1992 109.731 11.8501 109.731 8.3476C109.731 4.84509 107.385 1.49602 103.987 1.49602C100.589 1.49602 98.2434 4.84509 98.2434 8.3476Z" fill="white"/>
<path fill-rule="evenodd" clip-rule="evenodd" d="M53.0058 13.2279L53.0559 13.297C53.3258 13.6178 53.6695 13.8691 54.0578 14.0294C54.4461 14.1897 54.8676 14.2543 55.2863 14.2177C56.1989 14.1717 57.0887 13.917 57.8866 13.4734C58.0561 13.3775 58.2256 13.2778 58.3835 13.1665L58.9498 12.7829L59.2541 13.4082L59.154 13.5348C58.8372 13.9313 58.4824 14.2962 58.0946 14.6243C57.6813 14.9858 57.238 15.3118 56.7694 15.5987C56.3329 15.8461 55.8652 16.0344 55.3788 16.1588C54.8675 16.2877 54.3421 16.3521 53.8147 16.3506C53.2728 16.3582 52.7328 16.2858 52.2122 16.1358C51.7663 16.0053 51.3547 15.7787 51.0065 15.4721C50.7167 15.2082 50.4582 14.9122 50.236 14.5898C50.0243 14.2743 49.8523 13.9342 49.7237 13.577C49.3492 12.4632 49.2945 11.2674 49.5657 10.1244C49.8079 8.98497 50.3751 7.93934 51.1991 7.11288C51.7628 6.56464 52.4255 6.12732 53.1522 5.8239C53.8725 5.53233 54.6435 5.38502 55.4211 5.3904C56.1148 5.38806 56.7962 5.57229 57.3935 5.92364C57.9831 6.28221 58.5264 6.71122 59.0114 7.20112L59.2117 7.3891L53.0058 13.2279ZM52.5705 12.0003L54.824 9.86349C55.0342 9.6466 55.1849 9.37962 55.2618 9.0881C55.3387 8.79659 55.3392 8.4903 55.2632 8.19855C55.212 8.00816 55.111 7.83473 54.9704 7.696C54.8151 7.54912 54.6138 7.45975 54.4003 7.4428C54.2242 7.41704 54.0444 7.43415 53.8764 7.49268C53.4838 7.6674 53.1726 7.98418 53.0058 8.37885C52.7683 8.89056 52.6161 9.43734 52.5551 9.99776C52.4549 10.6615 52.4549 11.3365 52.5551 12.0003" fill="white"/>
<path fill-rule="evenodd" clip-rule="evenodd" d="M68.3958 10.7164L66.3965 14.3992L65.1946 16.701L61.3693 9.63841L61.3693 9.66143L60.6721 8.48753L59.605 6.95302L59.813 6.73819C60.0945 6.431 60.3998 6.14625 60.726 5.88654C60.9676 5.66014 61.2633 5.49903 61.585 5.41851C61.7242 5.43145 61.8593 5.47207 61.9824 5.53796C62.1054 5.60386 62.214 5.69369 62.3016 5.80214C62.5565 6.08061 62.7752 6.38994 62.9526 6.72284C63.4341 7.56299 63.881 8.41847 64.3278 9.27396C64.7131 10.0105 65.0983 10.7509 65.4835 11.476C65.6353 11.7503 65.8052 12.0143 65.992 12.2663C66.0382 12.3315 66.0883 12.3928 66.1384 12.4504L67.6793 9.54634C67.5868 9.21642 66.3926 7.87372 66.1076 7.68958C66.0113 7.6282 65.9111 7.56299 65.8148 7.49393L65.5721 7.31747L65.7763 7.10263C66.1805 6.68347 66.6061 6.28525 67.0514 5.90955C67.2957 5.67378 67.5968 5.50467 67.9258 5.41851C68.0644 5.43152 68.1989 5.47219 68.3214 5.5381C68.4438 5.60401 68.5517 5.69381 68.6385 5.80214C68.8935 6.08148 69.1134 6.39065 69.2934 6.72284C69.7711 7.56299 70.2179 8.41847 70.6648 9.27396C71.05 10.0105 71.4352 10.7509 71.8436 11.476C71.9926 11.7511 72.1613 12.0152 72.3482 12.2663C72.4134 12.3562 72.4842 12.442 72.5601 12.5233C72.8325 12.0602 73.0683 11.5767 73.265 11.077C73.5066 10.5678 73.6776 10.0284 73.7735 9.47345C73.7462 8.97956 73.5763 8.50403 73.2843 8.1039C72.9565 7.61631 72.5252 7.20639 72.0208 6.90315L71.8821 6.82642L71.8821 6.50801L72.0054 6.43129C72.2822 6.21445 72.54 5.97445 72.7758 5.7139C73.0566 5.40989 73.3592 5.12654 73.6811 4.86609C73.7705 4.7931 73.8658 4.72765 73.9662 4.67044C74.0599 4.61529 74.1656 4.58369 74.2743 4.57837C74.3708 4.58348 74.4652 4.60829 74.5517 4.65126C74.6436 4.69507 74.7324 4.74505 74.8175 4.80087C75.2132 5.06063 75.5483 5.4021 75.7998 5.80214C76.0915 6.23489 76.3113 6.71157 76.4509 7.21389L76.4778 7.30979L71.5354 16.6818L71.2773 16.2138L68.3958 10.7164Z" fill="white"/>
<path fill-rule="evenodd" clip-rule="evenodd" d="M90.265 15.721C90.134 15.8131 89.9953 15.9013 89.8528 15.9819C89.7219 16.056 89.5869 16.1226 89.4483 16.1814C89.316 16.2358 89.1794 16.2794 89.04 16.3118C88.9136 16.3409 88.7844 16.3563 88.6548 16.3578C88.3737 16.3629 88.095 16.3066 87.8381 16.1929C87.6036 16.0823 87.4087 15.9029 87.2795 15.6788C87.155 15.4626 87.0653 15.2283 87.0137 14.9845C86.9546 14.7071 86.9262 14.424 86.929 14.1405L86.929 4.33498C86.9216 3.70497 86.998 3.07676 87.1562 2.46672C87.2834 1.95744 87.5142 1.47956 87.8342 1.06265C88.1815 0.640059 88.6552 0.338986 89.1864 0.203322C89.7165 0.0716857 90.262 0.0123208 90.8082 0.0268538L93.5587 5.63889e-10L93.3352 0.383626C93.0531 0.919554 92.6137 1.35714 92.0756 1.63809C91.5714 1.8721 91.0251 2.00257 90.4692 2.02171C90.369 2.02171 90.2727 2.02171 90.1764 2.0524L89.9838 2.08309C89.9779 2.10833 89.9779 2.13458 89.9838 2.15982L89.899 13.5766C89.8945 13.6411 89.9064 13.7058 89.9337 13.7645C89.9558 13.7932 89.9845 13.8161 90.0173 13.8315C90.0502 13.8468 90.0862 13.8541 90.1225 13.8528C90.3041 13.8548 90.485 13.8276 90.6579 13.7722C91.1289 13.6184 91.5733 13.3932 91.9754 13.1047L92.0255 13.0663L92.0717 13.1085C92.2874 13.2888 92.5032 13.4691 92.7266 13.6379L92.7882 13.684L92.584 13.8911C92.3109 14.1553 92.0228 14.4038 91.7211 14.6354C91.2589 14.996 90.7812 15.3604 90.2997 15.7018L90.265 15.721Z" fill="white"/>
<path fill-rule="evenodd" clip-rule="evenodd" d="M79.6486 13.2279L79.6949 13.297C79.9648 13.6178 80.3085 13.8691 80.6968 14.0294C81.0852 14.1897 81.5066 14.2543 81.9253 14.2177C82.8381 14.1726 83.7281 13.9179 84.5256 13.4734C84.6967 13.3802 84.8626 13.2777 85.0225 13.1665L85.5926 12.7829L85.8931 13.4082L85.7968 13.5348C85.4797 13.9323 85.1236 14.2973 84.7336 14.6243C84.3211 14.9868 83.8777 15.3128 83.4084 15.5987C82.9725 15.8474 82.5047 16.0358 82.0178 16.1588C81.5079 16.2879 80.9837 16.3524 80.4576 16.3506C79.9157 16.3584 79.3756 16.286 78.8551 16.1358C78.4088 16.0062 77.9969 15.7795 77.6493 15.4721C77.3575 15.2102 77.0988 14.9139 76.8789 14.5898C76.6581 14.2795 76.4793 13.9415 76.3473 13.5847C75.9715 12.4713 75.9155 11.2755 76.1855 10.132C76.4293 8.99326 76.9962 7.94807 77.8188 7.12058C78.3826 6.57233 79.0452 6.13501 79.7719 5.83159C80.4936 5.54001 81.2659 5.39271 82.0447 5.39809C82.7382 5.39745 83.4192 5.58156 84.0171 5.93133C84.6094 6.2879 85.1553 6.71566 85.6427 7.20497L85.843 7.39295L79.6486 13.2279ZM79.2095 12.0003L81.463 9.86351C81.7331 9.59544 81.903 9.24351 81.9446 8.86608C81.9767 8.64304 81.9623 8.4158 81.9022 8.19857C81.8524 8.0076 81.7512 7.83381 81.6094 7.69602C81.4551 7.54993 81.2553 7.46062 81.0431 7.44282C80.867 7.41705 80.6873 7.43417 80.5192 7.49269C80.1258 7.66612 79.8141 7.98333 79.6486 8.37887C79.4099 8.89037 79.2564 9.43716 79.1941 9.99778C79.0959 10.6617 79.0959 11.3364 79.1941 12.0003" fill="white"/>
<path fill-rule="evenodd" clip-rule="evenodd" d="M47.5324 13.2057L47.5324 2.56003C47.5186 2.35221 47.552 2.14397 47.63 1.95072C47.708 1.75748 47.8287 1.58419 47.9831 1.44368C48.3341 1.19207 48.7246 1.00021 49.1387 0.875913L49.7474 0.6419L49.7474 0.311982L49.4662 0.208403C49.3139 0.152522 49.1565 0.111412 48.9962 0.0856421C48.8141 0.0555573 48.6299 0.0388883 48.4453 0.0357705C48.2437 0.0260098 48.0416 0.0298548 47.8405 0.0472792C47.6439 0.062557 47.4484 0.089458 47.255 0.12784L47.2203 0.12784C46.7998 0.214245 46.3947 0.362956 46.0184 0.569012C45.6553 0.767399 45.3294 1.027 45.0554 1.33627C44.7877 1.63361 44.5763 1.97673 44.4313 2.34904C44.2945 2.73198 44.2254 3.13566 44.2271 3.54212L44.2271 14.2645C44.232 14.8751 44.1182 15.4808 43.892 16.0484C43.1215 17.487 41.1954 18.2005 39.2693 18.189C34.9509 18.166 33.2906 14.2798 36.3801 12.4538L36.2954 12.1469L35.8023 12.1469C35.2855 12.1449 34.7857 12.3303 34.3962 12.6686C33.9673 13.049 33.6526 13.5403 33.4871 14.088C33.4066 14.3382 33.3486 14.5949 33.3137 14.8553L33.3137 16.0062C33.3368 16.1788 33.3677 16.3514 33.4062 16.5164C33.4705 16.7982 33.5621 17.0731 33.6797 17.3373C34.0928 18.2784 34.8102 19.0549 35.7175 19.5432C36.7374 20.0704 37.8739 20.3342 39.0227 20.3104L39.0651 20.3104C40.212 20.308 41.352 20.1347 42.4474 19.7964C43.4312 19.4895 44.3467 18.9972 45.144 18.3463C45.8882 17.7333 46.4857 16.9627 46.8929 16.0906C47.2988 15.1959 47.5102 14.2258 47.5131 13.244L47.5131 13.2095L47.5324 13.2057Z" fill="white"/>
<path fill-rule="evenodd" clip-rule="evenodd" d="M34.0734 26.4486C34.065 26.6795 34.1038 26.9097 34.1874 27.1252C34.271 27.3408 34.3977 27.5372 34.5598 27.7025C34.7219 27.8679 34.916 27.9988 35.1304 28.0872C35.3447 28.1756 35.5749 28.2198 35.8069 28.2171C36.1854 28.2194 36.5515 28.0828 36.8354 27.8335C36.8354 27.8335 36.8354 27.9064 36.8354 27.9754L36.8354 28.1404L37.3825 28.1404L37.3825 26.3603L36.2846 26.3603L36.2846 26.9013L36.8277 26.9013L36.8277 27.2849C36.586 27.5075 36.2709 27.6345 35.9417 27.6416C35.7811 27.6478 35.621 27.6204 35.4715 27.5614C35.3221 27.5024 35.1867 27.413 35.074 27.2989C34.9612 27.1848 34.8736 27.0485 34.8167 26.8988C34.7599 26.7491 34.735 26.5892 34.7437 26.4294C34.7361 26.2703 34.7626 26.1114 34.8214 25.9632C34.8802 25.815 34.9699 25.681 35.0846 25.57C35.1994 25.459 35.3365 25.3736 35.4869 25.3193C35.6373 25.2651 35.7976 25.2434 35.9571 25.2555C36.2994 25.2568 36.6314 25.3715 36.9009 25.5816L37.2207 25.1212C36.8479 24.8214 36.3781 24.6673 35.8993 24.6877C35.6622 24.6789 35.4258 24.718 35.2043 24.8027C34.9828 24.8874 34.7808 25.0159 34.6105 25.1804C34.4402 25.345 34.3052 25.5422 34.2135 25.7601C34.1219 25.9781 34.0755 26.2123 34.0772 26.4486M38.1067 26.4486C38.1067 26.9319 38.2995 27.3953 38.6426 27.7371C38.9858 28.0788 39.4512 28.2708 39.9365 28.2708C40.4218 28.2708 40.8872 28.0788 41.2304 27.7371C41.5735 27.3953 41.7663 26.9319 41.7663 26.4486C41.7663 25.9653 41.5735 25.5018 41.2304 25.1601C40.8872 24.8183 40.4218 24.6263 39.9365 24.6263C39.4512 24.6263 38.9858 24.8183 38.6426 25.1601C38.2995 25.5018 38.1067 25.9653 38.1067 26.4486ZM38.7693 26.4486C38.7693 26.1403 38.8922 25.8446 39.1111 25.6266C39.33 25.4086 39.6269 25.2862 39.9365 25.2862C40.2461 25.2862 40.543 25.4086 40.7619 25.6266C40.9808 25.8446 41.1037 26.1403 41.1037 26.4486C41.1037 26.7569 40.9808 27.0525 40.7619 27.2705C40.543 27.4885 40.2461 27.611 39.9365 27.611C39.6269 27.611 39.33 27.4885 39.1111 27.2705C38.8922 27.0525 38.7693 26.7569 38.7693 26.4486ZM42.6677 28.1787L44.8404 28.1787L44.8404 27.6263L43.2995 27.6263L43.2995 24.7453L42.6562 24.7453L42.6677 28.1787ZM45.5993 28.1787L46.8089 28.1787C47.8991 28.1787 48.6118 27.5457 48.6118 26.4678C48.6118 25.3898 47.8991 24.7644 46.8089 24.7644L45.5993 24.7644L45.5993 28.1787ZM46.2426 27.6455L46.2426 25.2785L46.7742 25.2785C47.0869 25.2785 47.3867 25.4022 47.6078 25.6223C47.8288 25.8425 47.953 26.1411 47.953 26.4524C47.953 26.7637 47.8288 27.0623 47.6078 27.2825C47.3867 27.5026 47.0869 27.6263 46.7742 27.6263L46.2426 27.6455ZM50.6843 27.0739L52.1866 27.0739L52.1866 26.5176L50.6843 26.5176L50.6843 27.0739ZM54.4826 28.1787L55.6883 28.1787C56.7785 28.1787 57.4912 27.5457 57.4912 26.4678C57.4912 25.3898 56.7785 24.7644 55.6883 24.7644L54.4826 24.7644L54.4826 28.1787ZM55.1259 27.6455L55.1259 25.2785L55.6537 25.2785C55.9663 25.2785 56.2661 25.4022 56.4872 25.6223C56.7083 25.8425 56.8324 26.1411 56.8324 26.4524C56.8324 26.7637 56.7083 27.0623 56.4872 27.2825C56.2661 27.5026 55.9663 27.6263 55.6537 27.6263L55.1259 27.6455ZM58.4119 28.1787L59.0552 28.1787L59.0552 24.7644L58.4119 24.7644L58.4119 28.1787ZM62.2641 28.1787L62.9267 28.1787L61.6786 24.7644L61.0083 24.7644L59.7602 28.1787L60.4227 28.1787L60.7232 27.3041L61.9636 27.3041L62.2641 28.1787ZM61.3511 25.3552C61.3511 25.3552 61.4282 25.6928 61.4898 25.8846L61.8057 26.7977L60.8773 26.7977L61.1932 25.8846C61.2625 25.6928 61.3396 25.3552 61.3396 25.3552L61.3511 25.3552ZM63.5161 28.1787L64.1594 28.1787L64.3097 26.2606C64.3097 26.0381 64.3097 25.7274 64.3097 25.7274C64.3097 25.7274 64.4214 26.0649 64.5061 26.2606L65.0724 27.5841L65.6348 27.5841L66.2088 26.2606C66.2936 26.0649 66.3976 25.735 66.3976 25.735C66.3976 25.735 66.3976 26.0381 66.3976 26.2606L66.5478 28.1787L67.1873 28.1787L66.9022 24.7644L66.2127 24.7644L65.5616 26.4332C65.4807 26.6365 65.3844 26.9319 65.3844 26.9319C65.3844 26.9319 65.2843 26.6365 65.2034 26.4332L64.51 24.7453L63.8243 24.7453L63.5161 28.1787ZM68.0078 26.4486C68.0078 26.9319 68.2006 27.3953 68.5438 27.7371C68.8869 28.0788 69.3523 28.2708 69.8376 28.2708C70.3229 28.2708 70.7883 28.0788 71.1315 27.7371C71.4747 27.3953 71.6674 26.9319 71.6674 26.4486C71.6674 25.9653 71.4747 25.5018 71.1315 25.1601C70.7883 24.8183 70.3229 24.6263 69.8376 24.6263C69.3523 24.6263 68.8869 24.8183 68.5438 25.1601C68.2006 25.5018 68.0078 25.9653 68.0078 26.4486ZM68.6704 26.4486C68.6704 26.1403 68.7934 25.8446 69.0123 25.6266C69.2312 25.4086 69.5281 25.2862 69.8376 25.2862C70.1472 25.2862 70.4441 25.4086 70.663 25.6266C70.8819 25.8446 71.0049 26.1403 71.0049 26.4486C71.0049 26.7569 70.8819 27.0525 70.663 27.2705C70.4441 27.4885 70.1472 27.611 69.8376 27.611C69.5281 27.611 69.2312 27.4885 69.0123 27.2705C68.7934 27.0525 68.6704 26.7569 68.6704 26.4486ZM72.5689 28.1787L73.2122 28.1787L73.2122 26.1915C73.2122 25.9921 73.1775 25.666 73.1775 25.666C73.2662 25.8467 73.3652 26.0222 73.4741 26.1915L74.807 28.1595L75.4426 28.1595L75.4426 24.7453L74.807 24.7453L74.807 26.7171C74.807 26.9204 74.8417 27.2465 74.8417 27.2465C74.7554 27.0641 74.6576 26.8873 74.5489 26.7171L73.2084 24.7453L72.565 24.7453L72.5689 28.1787ZM76.6022 28.1787L77.8118 28.1787C78.902 28.1787 79.6146 27.5457 79.6146 26.4678C79.6146 25.3898 78.902 24.7644 77.8118 24.7644L76.6022 24.7644L76.6022 28.1787ZM77.2455 27.6455L77.2455 25.2785L77.7771 25.2785C78.0897 25.2785 78.3896 25.4022 78.6106 25.6223C78.8317 25.8425 78.9559 26.1411 78.9559 26.4524C78.9559 26.7637 78.8317 27.0623 78.6106 27.2825C78.3896 27.5026 78.0897 27.6263 77.7771 27.6263L77.2455 27.6455ZM81.6871 27.0739L83.1895 27.0739L83.1895 26.5176L81.6871 26.5176L81.6871 27.0739ZM85.4855 28.1787L86.1288 28.1787L86.1288 26.9818L86.8491 26.9818C87.0021 26.9907 87.1554 26.9684 87.2994 26.9163C87.4434 26.8641 87.5752 26.7832 87.6867 26.6785C87.7982 26.5738 87.8871 26.4475 87.9478 26.3073C88.0085 26.1672 88.0398 26.0162 88.0398 25.8635C88.0398 25.7109 88.0085 25.5599 87.9478 25.4198C87.8871 25.2796 87.7982 25.1533 87.6867 25.0486C87.5752 24.9439 87.4434 24.863 87.2994 24.8108C87.1554 24.7586 87.0021 24.7363 86.8491 24.7453L85.4777 24.7453L85.4855 28.1787ZM86.1288 26.4639L86.1288 25.313L86.749 25.313C86.827 25.3066 86.9055 25.3172 86.979 25.3441C87.0525 25.371 87.1192 25.4134 87.1745 25.4685C87.2299 25.5237 87.2725 25.5901 87.2995 25.6633C87.3265 25.7365 87.3371 25.8146 87.3307 25.8923C87.3365 25.9712 87.3251 26.0504 87.2973 26.1245C87.2695 26.1986 87.2259 26.2658 87.1695 26.3216C87.1132 26.3773 87.0454 26.4203 86.9708 26.4475C86.8962 26.4747 86.8166 26.4856 86.7374 26.4793L86.1288 26.4639ZM88.7945 28.1787L90.9672 28.1787L90.9672 27.6263L89.4263 27.6263L89.4263 24.7453L88.7868 24.7453L88.7945 28.1787ZM93.9026 28.1787L94.5652 28.1787L93.2978 24.7453L92.6237 24.7453L91.3794 28.1595L92.042 28.1595L92.3425 27.2849L93.5829 27.2849L93.9026 28.1787ZM92.9896 25.3552C92.9896 25.3552 93.0628 25.6928 93.1283 25.8846L93.4442 26.7977L92.5274 26.7977L92.8394 25.8846C92.9087 25.6928 92.9896 25.3552 92.9896 25.3552ZM95.7941 28.1787L96.4374 28.1787L96.4374 25.2785L97.5931 25.2785L97.5931 24.7453L94.6268 24.7453L94.6268 25.2785L95.7825 25.2785L95.7941 28.1787ZM98.3134 28.1787L98.9568 28.1787L98.9568 24.7644L98.3057 24.7644L98.3134 28.1787ZM100.101 28.1787L100.744 28.1787L100.744 26.1915C100.744 25.9921 100.71 25.666 100.71 25.666C100.796 25.847 100.894 26.0225 101.002 26.1915L102.343 28.1595L102.982 28.1595L102.982 24.7453L102.343 24.7453L102.343 26.7171C102.343 26.9204 102.378 27.2465 102.378 27.2465C102.289 27.0644 102.19 26.8876 102.081 26.7171L100.74 24.7453L100.097 24.7453L100.101 28.1787ZM104.084 26.9319C104.084 27.6992 104.658 28.2171 105.513 28.2171C106.368 28.2171 106.942 27.6992 106.942 26.9319L106.942 24.7453L106.299 24.7453L106.299 26.9281C106.306 27.0316 106.29 27.1353 106.252 27.2318C106.214 27.3284 106.155 27.4152 106.079 27.4861C106.003 27.557 105.912 27.6102 105.813 27.6417C105.714 27.6733 105.609 27.6824 105.506 27.6685C105.406 27.679 105.305 27.6681 105.211 27.6365C105.116 27.6049 105.029 27.5533 104.956 27.4852C104.883 27.4172 104.825 27.3342 104.787 27.2421C104.749 27.1499 104.731 27.0507 104.735 26.9511L104.735 24.7644L104.084 24.7644L104.084 26.9319ZM107.936 28.1595L108.58 28.1595L108.73 26.2414C108.73 26.0189 108.73 25.7082 108.73 25.7082C108.73 25.7082 108.838 26.0458 108.923 26.2414L109.477 27.5726L110.04 27.5726L110.633 26.2491C110.718 26.0534 110.822 25.7235 110.822 25.7235C110.822 25.7235 110.822 26.0266 110.822 26.2491L110.972 28.1672L111.611 28.1672L111.326 24.7529L110.633 24.7529L109.94 26.4409C109.862 26.6442 109.766 26.9396 109.766 26.9396C109.766 26.9396 109.67 26.6442 109.589 26.4409L108.896 24.7529L108.206 24.7529L107.936 28.1595ZM113.823 27.0547L115.325 27.0547L115.325 26.5176L113.823 26.5176L113.823 27.0547ZM117.351 27.7491C117.682 28.0572 118.12 28.2251 118.572 28.2171C119.312 28.2171 119.728 27.7606 119.728 27.2158C119.728 26.1263 118.064 26.2759 118.064 25.6813C118.064 25.4396 118.299 25.2708 118.596 25.2708C118.878 25.2851 119.148 25.3901 119.366 25.5701L119.647 25.0637C119.356 24.8081 118.979 24.6711 118.592 24.6801C117.91 24.6801 117.401 25.102 117.401 25.6698C117.401 26.7209 119.073 26.6135 119.073 27.2043C119.073 27.4844 118.83 27.6186 118.561 27.6186C118.234 27.6026 117.923 27.4753 117.679 27.258L117.351 27.7491ZM120.63 28.1595L121.273 28.1595L121.273 24.7453L120.63 24.7453L120.63 28.1595ZM122.417 28.1595L124.59 28.1595L124.59 27.6263L123.049 27.6263L123.049 24.7453L122.405 24.7453L122.417 28.1595ZM125.934 28.1595L126.574 28.1595L127.864 24.7453L127.178 24.7453L126.408 26.9703C126.339 27.1698 126.281 27.4729 126.273 27.4729C126.273 27.4729 126.208 27.1698 126.138 26.9703L125.368 24.7453L124.674 24.7453L125.934 28.1595ZM128.554 28.1595L130.753 28.1595L130.753 27.6263L129.212 27.6263L129.212 26.7094L130.406 26.7094L130.406 26.1724L129.212 26.1724L129.212 25.2785L130.665 25.2785L130.665 24.7453L128.542 24.7453L128.554 28.1595ZM131.67 28.1595L132.313 28.1595L132.313 26.9013L132.93 26.9013L133.635 28.1749L134.351 28.1749L133.608 26.9013C133.575 26.8406 133.535 26.7839 133.488 26.7325C133.671 26.6541 133.825 26.5229 133.932 26.356C134.038 26.189 134.092 25.9941 134.085 25.7964C134.096 25.601 134.046 25.407 133.943 25.2405C133.839 25.0739 133.688 24.9427 133.508 24.8642C133.279 24.7826 133.037 24.7499 132.795 24.7683L131.639 24.7683L131.67 28.1595ZM132.313 26.3488L132.313 25.2785L132.803 25.2785C133.303 25.2785 133.45 25.4818 133.45 25.8079C133.455 25.8817 133.444 25.9557 133.418 26.0248C133.392 26.094 133.35 26.1565 133.297 26.2081C133.244 26.2596 133.18 26.299 133.11 26.3233C133.04 26.3476 132.965 26.3563 132.891 26.3488L132.313 26.3488Z" fill="white"/>
<path fill-rule="evenodd" clip-rule="evenodd" d="M14.522 28.8559C10.6942 28.8458 7.02589 27.3275 4.31845 24.6327C1.61101 21.938 0.0844655 18.2857 0.0722656 14.4737C0.0834399 10.6614 1.60888 7.0083 4.31549 4.3122C7.0221 1.6161 10.69 0.0960067 14.5182 0.0838623C18.3464 0.0960067 22.0143 1.6161 24.7209 4.3122C27.4275 7.0083 28.9529 10.6614 28.9641 14.4737C28.9519 18.2844 27.4264 21.9355 24.7207 24.63C22.0149 27.3246 18.3486 28.8437 14.522 28.8559Z" fill="#9F212C"/>
<path fill-rule="evenodd" clip-rule="evenodd" d="M14.5225 28.8564C11.1687 28.8642 7.91607 27.7132 5.31934 25.5995C2.72261 23.4859 0.942634 20.5406 0.283013 17.266C-0.376609 13.9913 0.124982 10.5902 1.70223 7.64275C3.27948 4.69528 5.8347 2.38402 8.93204 1.10318C12.0294 -0.177664 15.477 -0.348745 18.6869 0.619113C21.8967 1.58697 24.67 3.63382 26.5337 6.41054C28.3974 9.18726 29.236 12.5219 28.9065 15.8456C28.5771 19.1693 27.0999 22.2762 24.7271 24.6365C23.3881 25.9733 21.7977 27.0341 20.0467 27.7582C18.2957 28.4823 16.4185 28.8555 14.5225 28.8564ZM14.5225 28.2886C17.7458 28.293 20.8707 27.1835 23.3641 25.1493C25.8575 23.1152 27.5649 20.2824 28.195 17.1344C28.8251 13.9865 28.3388 10.7183 26.819 7.88755C25.2993 5.05681 22.8403 2.83892 19.8617 1.6123C16.883 0.385669 13.5693 0.226314 10.4858 1.16142C7.40235 2.09653 4.74023 4.06815 2.95369 6.73989C1.16715 9.41163 0.366879 12.6179 0.689427 15.8117C1.01198 19.0055 2.43735 21.9889 4.72236 24.2529C6.00846 25.5354 7.53622 26.5525 9.21796 27.2457C10.8997 27.939 12.7024 28.2947 14.5225 28.2924" fill="white"/>
<mask id="mask0_44_76" style="mask-type:luminance" maskUnits="userSpaceOnUse" x="2" y="2" width="25" height="25">
<path d="M6.93409 11.0132C7.11395 11.017 7.28869 11.0736 7.43635 11.176C7.58402 11.2783 7.69803 11.4218 7.76407 11.5885C7.83011 11.7551 7.84523 11.9375 7.80755 12.1127C7.76986 12.2878 7.68104 12.448 7.55224 12.5731C7.42344 12.6982 7.26041 12.7826 7.0836 12.8157C6.9068 12.8489 6.72411 12.8292 6.55847 12.7593C6.39284 12.6894 6.25164 12.5723 6.15261 12.4227C6.05358 12.2731 6.00113 12.0977 6.00185 11.9186C6.00221 11.7507 6.04885 11.5862 6.13667 11.4429C6.05362 11.4797 5.96518 11.503 5.87472 11.5119C5.4895 13.8904 7.88945 13.4301 7.88945 13.4301C8.76776 13.2114 13.2826 8.10533 13.2826 8.10533L12.9359 7.79459C12.4043 7.32656 12.724 7.35725 12.724 7.35725L15.0354 9.42117L14.3265 9.3828C12.0884 12.5055 10.0506 13.4914 9.22232 13.7792C5.37008 14.6231 5.37008 12.0835 5.37008 12.0835L2.61572 14.2817C8.07435 18.5016 10.1815 20.8724 10.9944 22.0693C10.9966 21.8902 11.052 21.7157 11.1535 21.5678C11.2551 21.4199 11.3982 21.3051 11.565 21.238C11.7318 21.1708 11.9148 21.1542 12.091 21.1903C12.2673 21.2263 12.4289 21.3134 12.5555 21.4407C12.6822 21.5679 12.7683 21.7295 12.8031 21.9053C12.8378 22.0811 12.8196 22.2632 12.7508 22.4287C12.6819 22.5943 12.5655 22.7359 12.4161 22.8357C12.2668 22.9356 12.0911 22.9893 11.9112 22.99C11.743 22.991 11.5777 22.9459 11.4335 22.8596C11.4726 22.9402 11.4961 23.0274 11.5029 23.1166C13.8951 23.4734 13.4059 21.0988 13.4059 21.0988C13.1786 20.2241 8.01272 15.7548 8.01272 15.7548L7.70069 16.1039C7.23071 16.641 7.26153 16.3188 7.26153 16.3188L9.38027 14.0631L9.38027 14.0132L9.54591 14.0477L9.54591 14.7344C12.3195 16.852 13.3982 18.7203 13.7834 19.6256C14.6424 23.4888 12.0845 23.4888 12.0845 23.4888L14.2765 26.2432C18.5332 20.8034 20.91 18.6896 22.1119 17.8801C21.932 17.8779 21.7568 17.8227 21.6083 17.7216C21.4598 17.6205 21.3445 17.478 21.2771 17.3119C21.2097 17.1458 21.193 16.9635 21.2292 16.788C21.2654 16.6125 21.3529 16.4516 21.4806 16.3254C21.6084 16.1993 21.7707 16.1135 21.9472 16.0789C22.1238 16.0443 22.3066 16.0625 22.4728 16.131C22.6391 16.1996 22.7812 16.3155 22.8815 16.4642C22.9818 16.613 23.0357 16.7879 23.0365 16.9671C23.0392 17.1337 22.9938 17.2975 22.9055 17.439C22.9886 17.4022 23.077 17.3789 23.1675 17.3699C23.5257 14.9914 21.1412 15.4786 21.1412 15.4786C20.259 15.705 15.775 20.8494 15.775 20.8494L16.1217 21.1601C16.661 21.6243 16.3374 21.5975 16.3374 21.5975L14.3265 19.7215L14.2148 19.3379L14.6001 19.5719C16.4145 17.063 19.2998 15.3098 19.6504 15.1065L19.685 15.0835C23.6914 14.1858 23.6451 16.783 23.6451 16.783L26.4265 14.6231C20.9986 10.3572 18.9146 7.97489 18.1095 6.7703C18.1057 6.94942 18.0488 7.12343 17.946 7.27048C17.8433 7.41754 17.6992 7.53107 17.5318 7.59684C17.3645 7.6626 17.1813 7.67767 17.0054 7.64014C16.8295 7.60261 16.6687 7.51416 16.543 7.38589C16.4174 7.25763 16.3327 7.09527 16.2994 6.9192C16.2662 6.74312 16.2859 6.56119 16.3561 6.39624C16.4263 6.23129 16.5439 6.09068 16.6941 5.99206C16.8443 5.89344 17.0204 5.84121 17.2003 5.84193C17.3921 5.83706 17.5823 5.87783 17.755 5.96085C17.727 5.86839 17.6768 5.78412 17.6087 5.71533C15.2203 5.3317 15.6825 7.7217 15.6825 7.7217C15.9021 8.59637 21.0295 13.0925 21.0295 13.0925L21.3415 12.751C21.8115 12.2178 21.7806 12.5362 21.7806 12.5362L19.6465 14.7766L19.5887 14.2127C17.7899 12.9947 16.3167 11.3578 15.2973 9.44418C14.0261 5.8496 17.3352 5.36623 17.3352 5.36623L14.835 2.73071C10.5359 8.14369 8.16296 10.2114 6.93409 11.0132Z" fill="white"/>
</mask>
<g mask="url(#mask0_44_76)">
<path d="M26.4265 2.73071L2.61572 2.73071L2.61572 26.224L26.4265 26.224L26.4265 2.73071Z" fill="url(#paint0_linear_44_76)"/>
</g>
<mask id="mask1_44_76" style="mask-type:luminance" maskUnits="userSpaceOnUse" x="9" y="9" width="11" height="11">
<path d="M9.36537 13.7199C9.46626 13.8654 9.53521 14.0304 9.56774 14.2043C9.60026 14.3781 9.59563 14.5569 9.55413 14.7288C9.55413 14.7288 12.5666 16.9116 13.7916 19.62C13.7916 19.62 13.8956 19.0906 14.6083 19.5817C15.9856 17.7846 17.6977 16.2685 19.6509 15.1163L19.5969 14.2301C17.8171 12.9787 16.3469 11.3401 15.2978 9.43858L15.0436 9.40789L14.3271 9.3772C14.3271 9.3772 12.112 12.6687 9.35767 13.7199" fill="white"/>
</mask>
<g mask="url(#mask1_44_76)">
<path d="M19.6481 9.3772L9.36646 9.3772L9.36646 19.62L19.6481 19.62L19.6481 9.3772Z" fill="url(#paint1_linear_44_76)"/>
</g>
<path d="M17.0223 14.7868C17.0273 14.7548 17.0204 14.7221 17.0031 14.6947C16.8201 14.4635 16.6757 14.2044 16.5755 13.9275C16.5408 13.7779 16.5254 13.4211 16.7488 13.3712C16.9723 13.3213 17.0801 13.6052 17.0339 13.7932C16.9877 13.9812 17.265 14.0464 17.3074 13.8699C17.3559 13.7591 17.3693 13.6363 17.3459 13.5177C17.3225 13.3992 17.2634 13.2905 17.1764 13.2062C17.0982 13.1537 17.0102 13.1171 16.9176 13.0986C16.825 13.0802 16.7297 13.0803 16.6371 13.0988C16.3721 13.0313 16.1141 12.9388 15.8667 12.8226C15.7049 12.7267 15.5508 12.5771 15.6124 12.3776C15.6263 12.311 15.6662 12.2527 15.7232 12.2153C15.7802 12.1779 15.8498 12.1645 15.9167 12.1781C16.0747 12.2242 16.067 12.4006 16.0631 12.5387C16.0687 12.5729 16.0864 12.6039 16.1128 12.6263C16.1393 12.6487 16.1729 12.6609 16.2076 12.6609C16.2423 12.6609 16.2759 12.6487 16.3024 12.6263C16.3288 12.6039 16.3464 12.5729 16.352 12.5387C16.352 12.2395 16.2827 11.9249 15.9399 11.8904C15.8325 11.8795 15.7243 11.8988 15.6276 11.9463C15.5308 11.9938 15.4495 12.0675 15.3928 12.1589L15.3582 12.1589C15.1131 12.2951 14.8375 12.3677 14.5569 12.3699C14.4439 12.3773 14.3309 12.3548 14.2295 12.3047C14.1958 12.2876 14.1664 12.2632 14.1436 12.2332C14.1208 12.2032 14.1051 12.1684 14.0977 12.1315C14.0903 12.0946 14.0913 12.0565 14.1008 12.02C14.1103 11.9836 14.1279 11.9498 14.1524 11.9211C14.3104 11.8904 14.3913 11.9211 14.3951 12.0554C14.4053 12.092 14.4297 12.1231 14.463 12.1418C14.4794 12.151 14.4975 12.157 14.5163 12.1593C14.5351 12.1616 14.5541 12.1601 14.5723 12.1551C14.5905 12.1501 14.6076 12.1415 14.6224 12.1299C14.6373 12.1183 14.6498 12.1039 14.6591 12.0875C14.6684 12.0711 14.6744 12.0531 14.6767 12.0344C14.6789 12.0157 14.6775 11.9968 14.6725 11.9786C14.607 11.7254 14.399 11.4492 14.1023 11.595C14.0048 11.6504 13.9264 11.734 13.8776 11.8347C13.8287 11.9353 13.8117 12.0484 13.8288 12.1589C13.6435 12.3406 13.4864 12.5488 13.3627 12.7766C13.2727 12.9424 13.1246 13.0693 12.9467 13.1334C12.8994 13.1426 12.8506 13.1411 12.804 13.1292C12.7573 13.1172 12.714 13.0951 12.677 13.0643C12.6308 12.9729 12.6198 12.8678 12.6462 12.7689C12.6462 12.6845 12.7155 12.6308 12.8272 12.6155C12.9428 12.7574 13.1431 12.5579 13.0276 12.416C12.6231 11.9134 12.0529 12.9377 12.5306 13.3098L12.5923 13.3559C12.6289 13.6244 12.6289 13.8967 12.5923 14.1653C12.5576 14.3379 12.4844 14.5489 12.2687 14.5221C12.1338 14.5221 11.8834 14.3034 12.0529 14.1807C12.2224 14.0579 12.0529 13.8239 11.9104 13.9351C11.4982 14.242 11.8449 14.8252 12.2956 14.806L12.3996 14.806C12.5056 14.9943 12.6226 15.1762 12.7502 15.3507C12.8534 15.4841 12.9114 15.6466 12.9158 15.8149C12.9158 15.9147 12.8388 16.0873 12.6963 16.0643C12.6539 16.0643 12.5152 15.8955 12.6038 15.8571C12.7695 15.7842 12.6269 15.5387 12.4574 15.6116C12.2879 15.6845 12.2456 16.0451 12.3534 16.1985C12.4342 16.2829 12.5409 16.3381 12.6567 16.3555C12.7724 16.3728 12.8907 16.3514 12.9929 16.2944C13.0723 16.2466 13.1333 16.1737 13.1662 16.0873L13.1894 16.0873C13.4969 16.0857 13.7995 16.1637 14.0677 16.3136C14.1395 16.3749 14.1937 16.4541 14.2248 16.543C14.256 16.632 14.2629 16.7275 14.2449 16.82C14.2456 16.8819 14.2297 16.9428 14.1986 16.9965L14.0137 17.0924C13.902 17.0732 13.9675 16.8737 13.9829 16.8162C14.0407 16.6435 13.7633 16.5668 13.7094 16.7433C13.6324 16.9888 13.6401 17.2842 13.9367 17.3648C14.0046 17.3773 14.0744 17.3756 14.1417 17.3598C14.2089 17.344 14.2721 17.3144 14.3272 17.2728C14.3823 17.2313 14.4281 17.1788 14.4617 17.1187C14.4953 17.0586 14.5159 16.9921 14.5222 16.9236C14.5222 16.8776 14.5222 16.8315 14.5222 16.7893C14.5438 16.7822 14.5635 16.7704 14.58 16.7548C14.8274 16.5211 15.1143 16.3328 15.4275 16.1985C15.6201 16.118 15.9399 16.0336 16.0323 16.329C16.0558 16.4305 16.0407 16.5371 15.9899 16.6282C15.9167 16.7932 15.8089 16.8047 15.6663 16.6666C15.6856 16.4863 15.4005 16.4863 15.3813 16.6666C15.3766 16.7315 15.3885 16.7965 15.416 16.8555C15.4435 16.9146 15.4856 16.9657 15.5384 17.004C15.5912 17.0424 15.6529 17.0668 15.7177 17.0748C15.7826 17.0829 15.8484 17.0744 15.909 17.0502C16.0479 16.9942 16.164 16.8936 16.2387 16.7642C16.3134 16.6349 16.3425 16.4843 16.3212 16.3366C16.3141 16.2809 16.2985 16.2266 16.275 16.1755C16.2811 16.1542 16.2811 16.1316 16.275 16.1103C16.2705 15.8453 16.3271 15.5828 16.4406 15.343C16.5061 15.2088 16.6256 15.0515 16.7912 15.0515C16.845 15.051 16.8971 15.0707 16.9372 15.1065C16.9772 15.1423 17.0024 15.1918 17.0077 15.2451C17.013 15.2985 16.9981 15.3519 16.9659 15.3949C16.9337 15.4378 16.8865 15.4672 16.8336 15.4773C16.6525 15.5157 16.7296 15.7919 16.9106 15.7535C17.0237 15.7415 17.1293 15.6914 17.21 15.6117C17.2907 15.5319 17.3418 15.4272 17.3548 15.3147C17.3678 15.2022 17.342 15.0886 17.2816 14.9927C17.2211 14.8967 17.1297 14.8241 17.0223 14.7868ZM16.2288 15.1704C16.1142 15.4012 16.0424 15.6508 16.0169 15.907C15.8962 15.8529 15.763 15.833 15.6317 15.8494C15.1993 15.9419 14.804 16.1594 14.4953 16.4747C14.3296 16.0144 13.7248 15.8725 13.2086 15.8226C13.2088 15.763 13.201 15.7037 13.1855 15.6461C13.0969 15.2625 12.8003 15.017 12.6346 14.6794C12.9158 14.4223 12.8966 13.8622 12.8658 13.4633C13.3165 13.4633 13.6362 12.7766 13.929 12.4543C14.214 12.7996 14.8689 12.673 15.285 12.508C15.285 12.9914 15.909 13.1756 16.3443 13.3175C16.2607 13.4985 16.2288 13.6989 16.2519 13.8968C16.3276 14.2151 16.4737 14.5126 16.6795 14.7676C16.577 14.794 16.4814 14.8419 16.399 14.9081C16.3167 14.9742 16.2494 15.0571 16.2018 15.1512" fill="#9F212C"/>
<path d="M16.8066 12.7076C16.8066 12.751 16.7937 12.7933 16.7696 12.8293C16.7455 12.8654 16.7112 12.8935 16.671 12.91C16.6309 12.9266 16.5868 12.931 16.5442 12.9225C16.5016 12.914 16.4625 12.8932 16.4317 12.8625C16.401 12.8319 16.3801 12.7929 16.3717 12.7504C16.3632 12.7079 16.3675 12.6638 16.3841 12.6238C16.4008 12.5837 16.4289 12.5495 16.465 12.5254C16.5011 12.5014 16.5436 12.4885 16.587 12.4885C16.6449 12.4895 16.7002 12.5129 16.7412 12.5538C16.7821 12.5947 16.8056 12.6498 16.8066 12.7076Z" fill="#9F212C"/>
<path d="M17.4501 14.5355C17.4506 14.5644 17.4453 14.5932 17.4345 14.62C17.4236 14.6468 17.4075 14.6712 17.387 14.6916C17.3665 14.7121 17.3421 14.7282 17.3152 14.739C17.2883 14.7498 17.2595 14.7551 17.2305 14.7546C17.1995 14.7588 17.168 14.7562 17.138 14.7472C17.1081 14.7382 17.0804 14.7229 17.0569 14.7023C17.0333 14.6817 17.0145 14.6564 17.0015 14.628C16.9886 14.5995 16.9819 14.5687 16.9819 14.5375C16.9819 14.5062 16.9886 14.4754 17.0015 14.4469C17.0145 14.4185 17.0333 14.3932 17.0569 14.3726C17.0804 14.352 17.1081 14.3367 17.138 14.3277C17.168 14.3187 17.1995 14.3162 17.2305 14.3203C17.2592 14.3198 17.2876 14.325 17.3143 14.3355C17.3409 14.3461 17.3651 14.3619 17.3856 14.382C17.406 14.402 17.4222 14.4259 17.4333 14.4523C17.4444 14.4786 17.4501 14.5069 17.4501 14.5355Z" fill="#9F212C"/>
<path d="M16.7771 16.2759C16.7771 16.334 16.7539 16.3897 16.7128 16.4308C16.6716 16.4719 16.6157 16.4949 16.5575 16.4949C16.5285 16.4955 16.4997 16.4902 16.4729 16.4793C16.446 16.4685 16.4216 16.4524 16.4011 16.4319C16.3806 16.4115 16.3644 16.3871 16.3536 16.3603C16.3427 16.3335 16.3374 16.3048 16.3379 16.2759C16.3379 16.2177 16.3611 16.162 16.4022 16.1209C16.4434 16.0798 16.4993 16.0568 16.5575 16.0568C16.6154 16.0578 16.6707 16.0812 16.7117 16.122C16.7526 16.1629 16.7761 16.2181 16.7771 16.2759Z" fill="#9F212C"/>
<path d="M15.1242 17.2135C15.1242 17.2568 15.1113 17.2992 15.0872 17.3352C15.0631 17.3712 15.0288 17.3993 14.9887 17.4159C14.9485 17.4325 14.9044 17.4368 14.8618 17.4284C14.8192 17.4199 14.7801 17.399 14.7494 17.3684C14.7187 17.3378 14.6978 17.2987 14.6893 17.2562C14.6808 17.2137 14.6852 17.1697 14.7018 17.1296C14.7184 17.0896 14.7465 17.0554 14.7826 17.0313C14.8188 17.0072 14.8612 16.9944 14.9046 16.9944C14.9629 16.9944 15.0187 17.0175 15.0599 17.0586C15.1011 17.0996 15.1242 17.1554 15.1242 17.2135Z" fill="#9F212C"/>
<path d="M13.2709 16.8362C13.2709 16.8943 13.2478 16.95 13.2066 16.9911C13.1655 17.0322 13.1096 17.0553 13.0514 17.0553C12.9931 17.0553 12.9373 17.0322 12.8961 16.9911C12.8549 16.95 12.8318 16.8943 12.8318 16.8362C12.8318 16.7781 12.8549 16.7223 12.8961 16.6812C12.9373 16.6401 12.9931 16.6171 13.0514 16.6171C13.1096 16.6171 13.1655 16.6401 13.2066 16.6812C13.2478 16.7223 13.2709 16.7781 13.2709 16.8362Z" fill="#9F212C"/>
<path d="M12.0148 15.4295C12.0148 15.4729 12.0019 15.5155 11.9775 15.5516C11.9532 15.5877 11.9187 15.6157 11.8784 15.6322C11.838 15.6487 11.7937 15.6528 11.751 15.644C11.7083 15.6352 11.6692 15.614 11.6386 15.583C11.6081 15.5519 11.5875 15.5125 11.5794 15.4698C11.5714 15.427 11.5763 15.3829 11.5935 15.3429C11.6107 15.303 11.6395 15.269 11.6761 15.2454C11.7127 15.2218 11.7555 15.2096 11.7991 15.2104C11.8567 15.2114 11.9115 15.2349 11.9519 15.2759C11.9922 15.3169 12.0148 15.372 12.0148 15.4295Z" fill="#9F212C"/>
<path d="M12.0459 13.5119C12.0459 13.57 12.0227 13.6258 11.9816 13.6669C11.9404 13.708 11.8845 13.731 11.8263 13.731C11.7973 13.7316 11.7685 13.7262 11.7417 13.7154C11.7148 13.7046 11.6904 13.6885 11.6699 13.668C11.6494 13.6476 11.6332 13.6232 11.6224 13.5964C11.6115 13.5696 11.6062 13.5409 11.6067 13.5119C11.6067 13.4538 11.6299 13.3981 11.671 13.357C11.7122 13.3159 11.7681 13.2928 11.8263 13.2928C11.8842 13.2938 11.9395 13.3172 11.9805 13.3581C12.0214 13.399 12.0449 13.4541 12.0459 13.5119Z" fill="#9F212C"/>
<path d="M13.2868 12.0519C13.2868 12.0952 13.2739 12.1375 13.2498 12.1736C13.2257 12.2096 13.1914 12.2377 13.1513 12.2543C13.1111 12.2709 13.067 12.2752 13.0244 12.2667C12.9818 12.2583 12.9427 12.2374 12.912 12.2068C12.8813 12.1761 12.8603 12.1371 12.8519 12.0946C12.8434 12.0521 12.8478 12.008 12.8644 11.968C12.881 11.928 12.9091 11.8938 12.9452 11.8697C12.9814 11.8456 13.0238 11.8328 13.0672 11.8328C13.1255 11.8328 13.1813 11.8558 13.2225 11.8969C13.2637 11.938 13.2868 11.9937 13.2868 12.0519Z" fill="#9F212C"/>
<path d="M15.1743 11.7203C15.1733 11.7781 15.1499 11.8333 15.1089 11.8742C15.0679 11.9151 15.0126 11.9385 14.9547 11.9394C14.8965 11.9394 14.8406 11.9164 14.7995 11.8753C14.7583 11.8342 14.7351 11.7785 14.7351 11.7203C14.7346 11.6914 14.7399 11.6627 14.7508 11.6359C14.7616 11.6091 14.7778 11.5847 14.7983 11.5643C14.8188 11.5438 14.8432 11.5277 14.8701 11.5169C14.897 11.506 14.9257 11.5007 14.9547 11.5013C15.013 11.5013 15.0688 11.5243 15.11 11.5654C15.1512 11.6065 15.1743 11.6622 15.1743 11.7203Z" fill="#9F212C"/>
<defs>
<linearGradient id="paint0_linear_44_76" x1="2.7269" y1="15.1182" x2="26.5376" y2="15.1182" gradientUnits="userSpaceOnUse">
<stop stop-color="#C4843E"/>
<stop offset="0.18" stop-color="#E7B164"/>
<stop offset="0.32" stop-color="#FFD17F"/>
<stop offset="0.68" stop-color="#FCEB9E"/>
<stop offset="1" stop-color="#F9CE6E"/>
</linearGradient>
<linearGradient id="paint1_linear_44_76" x1="9.52494" y1="15.352" x2="19.8066" y2="15.352" gradientUnits="userSpaceOnUse">
<stop stop-color="#ECBE62"/>
<stop offset="0.13" stop-color="#FFF7D1"/>
<stop offset="0.23" stop-color="#ECBE62"/>
<stop offset="0.35" stop-color="#FEE58B"/>
<stop offset="0.47" stop-color="#FFDAA6"/>
<stop offset="0.59" stop-color="#ECBE62"/>
<stop offset="0.73" stop-color="#FEE58B"/>
<stop offset="0.86" stop-color="#ECBE62"/>
<stop offset="1" stop-color="#FFF7D1"/>
</linearGradient>
</defs>
</svg>
