<svg width="190" height="42" viewBox="0 0 190 42" fill="none" xmlns="http://www.w3.org/2000/svg">
<path fill-rule="evenodd" clip-rule="evenodd" d="M181.19 19.4487C181.21 19.4816 181.234 19.5125 181.26 19.5408C181.64 19.994 182.124 20.3493 182.671 20.5764C183.218 20.8035 183.811 20.8957 184.402 20.8452C185.692 20.7832 186.949 20.4238 188.076 19.7951C188.316 19.6661 188.548 19.5233 188.772 19.3676L189.576 18.8263L190 19.7085L189.864 19.8817C189.417 20.4426 188.914 20.9575 188.364 21.4189C187.782 21.9303 187.156 22.3903 186.494 22.7937C185.882 23.149 185.221 23.4151 184.532 23.5839C183.813 23.7687 183.073 23.8597 182.331 23.8546C181.567 23.8674 180.805 23.7671 180.07 23.5569C179.443 23.3749 178.864 23.057 178.374 22.6259C177.964 22.2531 177.599 21.8335 177.287 21.3756C176.983 20.9355 176.74 20.4568 176.564 19.9521C176.035 18.381 175.956 16.6942 176.336 15.0808C176.679 13.4741 177.481 12.0003 178.646 10.8374C179.437 10.0611 180.371 9.44372 181.396 9.01878C182.415 8.6078 183.504 8.39999 184.603 8.40716C185.581 8.40696 186.541 8.66468 187.386 9.15409C188.22 9.6589 188.99 10.2623 189.679 10.9511L189.962 11.2217L181.19 19.4487ZM180.548 17.7167L183.728 14.7019C184.108 14.323 184.347 13.8268 184.407 13.2947C184.452 12.9803 184.433 12.6602 184.353 12.3529C184.279 12.0833 184.137 11.8372 183.94 11.6384C183.717 11.4374 183.435 11.3123 183.135 11.2812C182.887 11.2502 182.634 11.2742 182.396 11.3516C181.842 11.5981 181.403 12.045 181.168 12.6019C180.84 13.3274 180.631 14.1002 180.548 14.8914C180.41 15.8281 180.41 16.78 180.548 17.7167Z" fill="#A0222C"/>
<path fill-rule="evenodd" clip-rule="evenodd" d="M168.83 12.3151C168.26 12.3151 167.624 12.9808 167.298 13.3651C166.487 14.3786 165.804 15.4874 165.265 16.6668L165.298 20.5855C165.332 21.0409 165.269 21.4982 165.113 21.9278C164.874 22.3739 164.519 22.7479 164.086 23.0103C163.751 23.2409 163.385 23.4232 162.999 23.5515C162.559 23.6949 162.105 23.7928 161.645 23.8438L161.2 23.8979L161.2 12.1852C161.207 12.0872 161.18 11.9895 161.124 11.9092C161.056 11.8586 160.974 11.8303 160.89 11.828L160.83 11.828C160.53 11.8476 160.239 11.9445 159.988 12.1094L159.547 10.7455C160.442 10.0266 161.377 9.35798 162.346 8.74282C162.519 8.6395 162.701 8.55252 162.89 8.48302C163.064 8.42001 163.248 8.38706 163.433 8.3856C163.768 8.38129 164.094 8.48582 164.363 8.68329C164.618 8.8834 164.807 9.15479 164.906 9.46269C165.102 10.1975 165.222 10.95 165.265 11.7089C165.298 12.2014 165.319 12.6886 165.325 13.1811C165.51 12.8997 165.705 12.6399 165.901 12.353C166.097 12.0661 166.374 11.7414 166.629 11.4329C166.885 11.1352 167.173 10.8483 167.423 10.5614C167.673 10.2746 167.966 10.0202 168.287 9.74414C168.582 9.4788 168.901 9.23974 169.238 9.02969C169.548 8.83999 169.878 8.68394 170.222 8.56421L170.477 8.49385L170.744 8.4289C170.923 8.39547 171.105 8.37736 171.287 8.37477C171.598 8.36988 171.905 8.43445 172.188 8.56372C172.47 8.69299 172.719 8.88367 172.918 9.1217C173.277 9.56986 173.517 10.1 173.619 10.6643C173.708 11.0805 173.752 11.5052 173.749 11.9308L173.749 20.8777C173.749 21.2187 173.874 21.327 174.217 21.2025C174.739 20.9608 175.224 20.6454 175.657 20.2661L176.162 21.3053C175.162 22.3878 173.793 23.8276 172.157 23.8276C171.822 23.8293 171.492 23.7602 171.186 23.6249C170.881 23.4896 170.608 23.2911 170.385 23.0428C169.917 22.5218 169.658 21.8475 169.657 21.1484L169.657 13.7981C169.659 13.4464 169.571 13.0998 169.401 12.7914C169.288 12.5729 169.092 12.4076 168.858 12.3313L168.83 12.3151Z" fill="#A0222C"/>
<path fill-rule="evenodd" clip-rule="evenodd" d="M155.682 21.0499C153.258 23.4693 149.828 24.2974 146.41 24.2974C143.339 24.2974 140.083 23.4693 137.714 21.5479C136.642 20.6641 135.772 19.5629 135.162 18.3178C134.552 17.0727 134.216 15.7124 134.175 14.3275C134.148 13.9649 134.137 13.5914 134.137 13.245C134.137 9.97044 135.121 6.74997 137.54 4.34681C139.754 2.21152 142.683 0.966299 145.763 0.850305C146.051 0.850305 146.344 0.823242 146.638 0.823242C154.274 0.823242 158.9 4.39552 158.9 11.8648C158.9 15.1611 158.149 18.5926 155.682 21.0661M138.61 12.563C138.61 17.5047 141.926 22.2298 146.714 22.2298C151.502 22.2298 154.818 17.5047 154.818 12.563C154.818 7.62139 151.508 2.89625 146.714 2.89625C141.92 2.89625 138.61 7.62139 138.61 12.563Z" fill="#A0222C"/>
<path fill-rule="evenodd" clip-rule="evenodd" d="M74.7853 19.4489L74.856 19.5463C75.2368 19.999 75.7218 20.3535 76.2696 20.5797C76.8175 20.8058 77.4121 20.897 78.0029 20.8453C79.2905 20.7804 80.5458 20.4211 81.6716 19.7953C81.9107 19.66 82.1498 19.5193 82.3727 19.3623L83.1716 18.821L83.601 19.7033L83.4597 19.8819C83.0128 20.4414 82.5122 20.9562 81.965 21.4191C81.382 21.9292 80.7565 22.3891 80.0954 22.7938C79.4795 23.1428 78.8197 23.4086 78.1333 23.5841C77.412 23.7659 76.6707 23.8568 75.9267 23.8547C75.1621 23.8654 74.4002 23.7632 73.6657 23.5516C73.0366 23.3674 72.4558 23.0478 71.9645 22.6152C71.5557 22.2429 71.191 21.8252 70.8775 21.3703C70.5788 20.9252 70.3361 20.4453 70.1546 19.9414C69.6263 18.37 69.5491 16.6829 69.9318 15.0701C70.2735 13.4626 71.0737 11.9873 72.2363 10.8213C73.0317 10.0478 73.9666 9.43077 74.9918 9.00269C76.0082 8.59132 77.096 8.38348 78.1931 8.39107C79.1718 8.38777 80.1332 8.6477 80.9759 9.14341C81.8077 9.64931 82.5743 10.2546 83.2586 10.9458L83.5412 11.211L74.7853 19.4489ZM74.1711 17.7169L77.3507 14.7021C77.6472 14.3961 77.8599 14.0194 77.9684 13.6081C78.0768 13.1968 78.0775 12.7647 77.9703 12.353C77.8981 12.0844 77.7555 11.8397 77.5572 11.644C77.338 11.4368 77.0541 11.3107 76.7528 11.2868C76.5043 11.2504 76.2507 11.2746 76.0136 11.3571C75.4598 11.6037 75.0207 12.0506 74.7853 12.6074C74.4503 13.3294 74.2355 14.1008 74.1494 14.8915C74.0081 15.8281 74.0081 16.7803 74.1494 17.7169" fill="#A0222C"/>
<path fill-rule="evenodd" clip-rule="evenodd" d="M96.4988 15.9052L93.678 21.1012L91.9823 24.3487L86.5852 14.3843L86.5852 14.4167L85.6015 12.7605L84.0959 10.5955L84.3894 10.2924C84.7867 9.85897 85.2173 9.45721 85.6776 9.09079C86.0184 8.77137 86.4356 8.54406 86.8896 8.43046C87.0859 8.44871 87.2765 8.50602 87.4502 8.59899C87.6238 8.69197 87.777 8.81871 87.9005 8.97172C88.2602 9.3646 88.5688 9.80104 88.819 10.2707C89.4984 11.4561 90.1289 12.6631 90.7594 13.8701C91.3029 14.9093 91.8464 15.9539 92.3899 16.9769C92.604 17.3639 92.8437 17.7364 93.1073 18.0918C93.1725 18.1839 93.2432 18.2705 93.3138 18.3516L95.4879 14.2544C95.3574 13.7889 93.6726 11.8945 93.2704 11.6347C93.1345 11.5481 92.9932 11.4561 92.8573 11.3586L92.5149 11.1097L92.803 10.8066C93.3733 10.2152 93.9738 9.65333 94.602 9.12327C94.9466 8.79062 95.3715 8.55202 95.8357 8.43046C96.0312 8.44881 96.221 8.50619 96.3938 8.59919C96.5665 8.69218 96.7187 8.81888 96.8412 8.97172C97.2009 9.36583 97.5112 9.80203 97.7652 10.2707C98.4391 11.4561 99.0696 12.6631 99.7001 13.8701C100.244 14.9093 100.787 15.9539 101.363 16.9769C101.573 17.365 101.811 17.7376 102.075 18.0918C102.167 18.2188 102.267 18.3399 102.374 18.4545C102.759 17.8012 103.091 17.1189 103.369 16.414C103.71 15.6956 103.951 14.9345 104.086 14.1515C104.048 13.4547 103.808 12.7838 103.396 12.2192C102.933 11.5313 102.325 10.953 101.613 10.5251L101.418 10.4169L101.418 9.96762L101.591 9.85937C101.982 9.55344 102.346 9.21483 102.678 8.84723C103.075 8.41829 103.502 8.01852 103.956 7.65106C104.082 7.54808 104.216 7.45574 104.358 7.37502C104.49 7.2972 104.639 7.25262 104.793 7.24512C104.929 7.25233 105.062 7.28733 105.184 7.34796C105.314 7.40977 105.439 7.48029 105.559 7.55904C106.117 7.92553 106.59 8.40731 106.945 8.97172C107.357 9.58227 107.667 10.2548 107.864 10.9635L107.902 11.0988L100.928 24.3217L100.564 23.6613L96.4988 15.9052Z" fill="#A0222C"/>
<path fill-rule="evenodd" clip-rule="evenodd" d="M127.354 22.9662C127.169 23.0961 126.973 23.2206 126.772 23.3343C126.587 23.4389 126.397 23.5328 126.201 23.6157C126.015 23.6925 125.822 23.754 125.625 23.7998C125.447 23.8407 125.265 23.8625 125.082 23.8647C124.685 23.8718 124.292 23.7924 123.93 23.632C123.599 23.476 123.324 23.2229 123.141 22.9067C122.966 22.6016 122.839 22.2711 122.766 21.927C122.683 21.5356 122.643 21.1363 122.647 20.7363L122.647 6.90181C122.636 6.01294 122.744 5.1266 122.968 4.26591C123.147 3.54737 123.473 2.87314 123.924 2.28492C124.414 1.68869 125.082 1.26391 125.832 1.07251C126.58 0.886785 127.349 0.803028 128.12 0.823532L132.001 0.785645L131.685 1.3269C131.287 2.08303 130.667 2.70042 129.908 3.0968C129.197 3.42696 128.426 3.61104 127.642 3.63805C127.5 3.63805 127.365 3.63805 127.229 3.68135L126.957 3.72465C126.949 3.76026 126.949 3.7973 126.957 3.8329L126.837 19.9406C126.831 20.0317 126.848 20.123 126.886 20.2058C126.917 20.2462 126.958 20.2786 127.004 20.3003C127.051 20.3219 127.101 20.3322 127.153 20.3303C127.409 20.3332 127.664 20.2948 127.908 20.2167C128.572 19.9996 129.199 19.682 129.767 19.2749L129.837 19.2208L129.903 19.2803C130.207 19.5347 130.511 19.7891 130.827 20.0272L130.914 20.0922L130.626 20.3844C130.24 20.7572 129.834 21.1078 129.408 21.4345C128.756 21.9433 128.082 22.4575 127.403 22.9392L127.354 22.9662Z" fill="#A0222C"/>
<path fill-rule="evenodd" clip-rule="evenodd" d="M112.375 19.4488L112.44 19.5462C112.821 19.999 113.306 20.3535 113.854 20.5796C114.402 20.8058 114.996 20.8969 115.587 20.8452C116.875 20.7817 118.131 20.4223 119.256 19.7952C119.497 19.6636 119.731 19.5191 119.957 19.3622L120.761 18.8209L121.185 19.7032L121.049 19.8818C120.602 20.4427 120.099 20.9576 119.549 21.419C118.967 21.9303 118.342 22.3903 117.68 22.7938C117.065 23.1446 116.405 23.4104 115.718 23.584C114.998 23.7661 114.259 23.857 113.516 23.8546C112.752 23.8656 111.99 23.7634 111.255 23.5515C110.626 23.3687 110.045 23.0488 109.554 22.6151C109.142 22.2456 108.777 21.8276 108.467 21.3703C108.156 20.9324 107.903 20.4556 107.717 19.9522C107.187 18.3813 107.108 16.6941 107.489 15.0809C107.833 13.4742 108.633 11.9995 109.793 10.832C110.589 10.0585 111.524 9.44152 112.549 9.01343C113.567 8.60204 114.657 8.39422 115.756 8.40181C116.734 8.4009 117.695 8.66066 118.538 9.15415C119.374 9.65723 120.144 10.2607 120.832 10.9511L121.115 11.2163L112.375 19.4488ZM111.755 17.7168L114.935 14.702C115.316 14.3238 115.556 13.8273 115.614 13.2947C115.66 12.9801 115.639 12.6595 115.554 12.353C115.484 12.0835 115.341 11.8383 115.141 11.6439C114.924 11.4378 114.642 11.3118 114.342 11.2867C114.094 11.2503 113.84 11.2745 113.603 11.3571C113.048 11.6017 112.608 12.0493 112.375 12.6074C112.038 13.329 111.822 14.1005 111.734 14.8914C111.595 15.8282 111.595 16.7801 111.734 17.7168" fill="#A0222C"/>
<path fill-rule="evenodd" clip-rule="evenodd" d="M67.0628 19.4173L67.0628 4.39747C67.0434 4.10426 67.0905 3.81045 67.2005 3.53781C67.3106 3.26516 67.4809 3.02067 67.6987 2.82243C68.194 2.46744 68.7449 2.19674 69.3292 2.02137L70.1879 1.69121L70.1879 1.22573L69.7912 1.07959C69.5763 1.00075 69.3542 0.942745 69.1281 0.906388C68.8711 0.863942 68.6113 0.840423 68.3509 0.836025C68.0664 0.822253 67.7813 0.827678 67.4976 0.852262C67.2202 0.873817 66.9443 0.911771 66.6714 0.965925L66.6225 0.965925C66.0292 1.08783 65.4576 1.29765 64.9268 1.58837C64.4144 1.86827 63.9547 2.23453 63.568 2.67088C63.1904 3.0904 62.8921 3.5745 62.6875 4.09979C62.4945 4.64007 62.397 5.20962 62.3995 5.78308L62.3995 20.9111C62.4063 21.7726 62.2458 22.6272 61.9266 23.428C60.8396 25.4577 58.1221 26.4644 55.4045 26.4482C49.3118 26.4157 46.9693 20.9328 51.3282 18.3564L51.2086 17.9234L50.513 17.9234C49.7838 17.9206 49.0786 18.1822 48.5291 18.6595C47.924 19.1962 47.4801 19.8894 47.2465 20.6622C47.1329 21.0151 47.0511 21.3773 47.0019 21.7447L47.0019 23.3684C47.0345 23.612 47.078 23.8556 47.1323 24.0883C47.2232 24.4859 47.3524 24.8738 47.5182 25.2466C48.1011 26.5743 49.1132 27.6698 50.3934 28.3588C51.8323 29.1026 53.4358 29.4748 55.0567 29.4413L55.1165 29.4413C56.7346 29.4379 58.343 29.1934 59.8885 28.716C61.2765 28.283 62.5681 27.5885 63.693 26.6701C64.743 25.8052 65.586 24.718 66.1606 23.4875C66.7333 22.2252 67.0315 20.8566 67.0356 19.4714L67.0356 19.4227L67.0628 19.4173Z" fill="#A0222C"/>
<path fill-rule="evenodd" clip-rule="evenodd" d="M48.0737 38.1015C48.0619 38.4273 48.1167 38.7521 48.2346 39.0562C48.3526 39.3603 48.5313 39.6374 48.76 39.8707C48.9887 40.104 49.2625 40.2886 49.565 40.4134C49.8674 40.5382 50.1922 40.6005 50.5195 40.5967C51.0536 40.5999 51.5701 40.4072 51.9707 40.0554C51.9707 40.0554 51.9707 40.1582 51.9707 40.2557L51.9707 40.4884L52.7424 40.4884L52.7424 37.977L51.1934 37.977L51.1934 38.7402L51.9598 38.7402L51.9598 39.2814C51.6188 39.5956 51.1742 39.7746 50.7097 39.7848C50.4831 39.7934 50.2572 39.7548 50.0464 39.6716C49.8356 39.5883 49.6445 39.4621 49.4854 39.3012C49.3264 39.1402 49.2028 38.948 49.1225 38.7367C49.0423 38.5255 49.0072 38.2999 49.0194 38.0744C49.0087 37.8499 49.0461 37.6257 49.1291 37.4167C49.212 37.2076 49.3386 37.0185 49.5005 36.8619C49.6624 36.7053 49.8559 36.5848 50.0681 36.5083C50.2803 36.4318 50.5064 36.401 50.7315 36.4182C51.2143 36.42 51.6828 36.5819 52.0631 36.8782L52.5142 36.2287C51.9882 35.8057 51.3254 35.5882 50.6499 35.6171C50.3154 35.6047 49.9818 35.6599 49.6693 35.7793C49.3567 35.8988 49.0718 36.0801 48.8315 36.3123C48.5913 36.5444 48.4007 36.8227 48.2714 37.1302C48.1421 37.4377 48.0767 37.7681 48.0791 38.1015M53.7642 38.1015C53.7642 38.7833 54.0362 39.4373 54.5204 39.9194C55.0046 40.4016 55.6612 40.6724 56.3459 40.6724C57.0306 40.6724 57.6873 40.4016 58.1714 39.9194C58.6556 39.4373 58.9276 38.7833 58.9276 38.1015C58.9276 37.4196 58.6556 36.7657 58.1714 36.2835C57.6873 35.8014 57.0306 35.5305 56.3459 35.5305C55.6612 35.5305 55.0046 35.8014 54.5204 36.2835C54.0362 36.7657 53.7642 37.4196 53.7642 38.1015ZM54.6991 38.1015C54.6991 37.6665 54.8726 37.2494 55.1814 36.9418C55.4903 36.6343 55.9091 36.4615 56.3459 36.4615C56.7827 36.4615 57.2016 36.6343 57.5104 36.9418C57.8192 37.2494 57.9927 37.6665 57.9927 38.1015C57.9927 38.5364 57.8192 38.9536 57.5104 39.2611C57.2016 39.5687 56.7827 39.7415 56.3459 39.7415C55.9091 39.7415 55.4903 39.5687 55.1814 39.2611C54.8726 38.9536 54.6991 38.5364 54.6991 38.1015ZM60.1994 40.5425L63.2648 40.5425L63.2648 39.7631L61.0907 39.7631L61.0907 35.6983L60.1831 35.6983L60.1994 40.5425ZM64.3355 40.5425L66.0421 40.5425C67.5802 40.5425 68.5857 39.6495 68.5857 38.1285C68.5857 36.6076 67.5802 35.7254 66.0421 35.7254L64.3355 35.7254L64.3355 40.5425ZM65.2431 39.7902L65.2431 36.4506L65.9932 36.4506C66.4343 36.4506 66.8573 36.6251 67.1692 36.9357C67.4811 37.2464 67.6563 37.6676 67.6563 38.1069C67.6563 38.5461 67.4811 38.9674 67.1692 39.278C66.8573 39.5886 66.4343 39.7631 65.9932 39.7631L65.2431 39.7902ZM71.5098 38.9837L73.6295 38.9837L73.6295 38.1989L71.5098 38.1989L71.5098 38.9837ZM76.8688 40.5425L78.57 40.5425C80.1081 40.5425 81.1136 39.6495 81.1136 38.1285C81.1136 36.6076 80.1081 35.7254 78.57 35.7254L76.8688 35.7254L76.8688 40.5425ZM77.7764 39.7902L77.7764 36.4506L78.521 36.4506C78.9621 36.4506 79.3852 36.6251 79.6971 36.9357C80.0089 37.2464 80.1842 37.6676 80.1842 38.1069C80.1842 38.5461 80.0089 38.9674 79.6971 39.278C79.3852 39.5886 78.9621 39.7631 78.521 39.7631L77.7764 39.7902ZM82.4126 40.5425L83.3202 40.5425L83.3202 35.7254L82.4126 35.7254L82.4126 40.5425ZM87.8476 40.5425L88.7825 40.5425L87.0215 35.7254L86.0758 35.7254L84.3148 40.5425L85.2497 40.5425L85.6736 39.3085L87.4237 39.3085L87.8476 40.5425ZM86.5595 36.5589C86.5595 36.5589 86.6682 37.0352 86.7552 37.3058L87.2009 38.594L85.891 38.594L86.3367 37.3058C86.4345 37.0352 86.5432 36.5589 86.5432 36.5589L86.5595 36.5589ZM89.614 40.5425L90.5217 40.5425L90.7337 37.8363C90.7337 37.5223 90.7337 37.0839 90.7337 37.0839C90.7337 37.0839 90.8913 37.5602 91.0109 37.8363L91.8098 39.7036L92.6033 39.7036L93.4132 37.8363C93.5327 37.5602 93.6795 37.0947 93.6795 37.0947C93.6795 37.0947 93.6795 37.5223 93.6795 37.8363L93.8915 40.5425L94.7937 40.5425L94.3915 35.7254L93.4186 35.7254L92.5001 38.0798C92.3859 38.3667 92.2501 38.7835 92.2501 38.7835C92.2501 38.7835 92.1087 38.3667 91.9946 38.0798L91.0163 35.6983L90.0489 35.6983L89.614 40.5425ZM95.9514 38.1015C95.9514 38.7833 96.2233 39.4373 96.7075 39.9194C97.1917 40.4016 97.8483 40.6724 98.533 40.6724C99.2177 40.6724 99.8744 40.4016 100.359 39.9194C100.843 39.4373 101.115 38.7833 101.115 38.1015C101.115 37.4196 100.843 36.7657 100.359 36.2835C99.8744 35.8014 99.2177 35.5305 98.533 35.5305C97.8483 35.5305 97.1917 35.8014 96.7075 36.2835C96.2233 36.7657 95.9514 37.4196 95.9514 38.1015ZM96.8862 38.1015C96.8862 37.6665 97.0597 37.2494 97.3685 36.9418C97.6774 36.6343 98.0962 36.4615 98.533 36.4615C98.9698 36.4615 99.3887 36.6343 99.6975 36.9418C100.006 37.2494 100.18 37.6665 100.18 38.1015C100.18 38.5364 100.006 38.9536 99.6975 39.2611C99.3887 39.5687 98.9698 39.7415 98.533 39.7415C98.0962 39.7415 97.6774 39.5687 97.3685 39.2611C97.0597 38.9536 96.8862 38.5364 96.8862 38.1015ZM102.386 40.5425L103.294 40.5425L103.294 37.7388C103.294 37.4574 103.245 36.9973 103.245 36.9973C103.37 37.2523 103.51 37.4999 103.664 37.7388L105.544 40.5155L106.441 40.5155L106.441 35.6983L105.544 35.6983L105.544 38.4803C105.544 38.7672 105.593 39.2273 105.593 39.2273C105.471 38.9699 105.333 38.7204 105.18 38.4803L103.289 35.6983L102.381 35.6983L102.386 40.5425ZM108.077 40.5425L109.784 40.5425C111.322 40.5425 112.327 39.6495 112.327 38.1285C112.327 36.6076 111.322 35.7254 109.784 35.7254L108.077 35.7254L108.077 40.5425ZM108.985 39.7902L108.985 36.4506L109.735 36.4506C110.176 36.4506 110.599 36.6251 110.911 36.9357C111.223 37.2464 111.398 37.6676 111.398 38.1069C111.398 38.5461 111.223 38.9674 110.911 39.278C110.599 39.5886 110.176 39.7631 109.735 39.7631L108.985 39.7902ZM115.251 38.9837L117.371 38.9837L117.371 38.1989L115.251 38.1989L115.251 38.9837ZM120.61 40.5425L121.518 40.5425L121.518 38.8538L122.534 38.8538C122.75 38.8664 122.966 38.8349 123.17 38.7613C123.373 38.6878 123.559 38.5736 123.716 38.4258C123.873 38.2781 123.999 38.0999 124.084 37.9022C124.17 37.7045 124.214 37.4914 124.214 37.2761C124.214 37.0607 124.17 36.8477 124.084 36.6499C123.999 36.4522 123.873 36.274 123.716 36.1263C123.559 35.9785 123.373 35.8644 123.17 35.7908C122.966 35.7172 122.75 35.6857 122.534 35.6983L120.599 35.6983L120.61 40.5425ZM121.518 38.1231L121.518 36.4994L122.393 36.4994C122.503 36.4904 122.614 36.5053 122.717 36.5432C122.821 36.5811 122.915 36.641 122.993 36.7188C123.072 36.7965 123.132 36.8903 123.17 36.9935C123.208 37.0968 123.223 37.207 123.214 37.3167C123.222 37.428 123.206 37.5397 123.167 37.6443C123.127 37.7488 123.066 37.8437 122.986 37.9223C122.907 38.001 122.811 38.0616 122.706 38.1C122.601 38.1384 122.488 38.1537 122.377 38.1448L121.518 38.1231ZM125.279 40.5425L128.344 40.5425L128.344 39.7631L126.17 39.7631L126.17 35.6983L125.268 35.6983L125.279 40.5425ZM132.486 40.5425L133.421 40.5425L131.633 35.6983L130.682 35.6983L128.926 40.5155L129.861 40.5155L130.285 39.2814L132.035 39.2814L132.486 40.5425ZM131.198 36.5589C131.198 36.5589 131.301 37.0352 131.394 37.3058L131.839 38.594L130.546 38.594L130.986 37.3058C131.084 37.0352 131.198 36.5589 131.198 36.5589ZM135.155 40.5425L136.062 40.5425L136.062 36.4506L137.693 36.4506L137.693 35.6983L133.508 35.6983L133.508 36.4506L135.138 36.4506L135.155 40.5425ZM138.709 40.5425L139.617 40.5425L139.617 35.7254L138.698 35.7254L138.709 40.5425ZM141.231 40.5425L142.139 40.5425L142.139 37.7388C142.139 37.4574 142.09 36.9973 142.09 36.9973C142.212 37.2527 142.35 37.5003 142.503 37.7388L144.394 40.5155L145.296 40.5155L145.296 35.6983L144.394 35.6983L144.394 38.4803C144.394 38.7672 144.443 39.2273 144.443 39.2273C144.319 38.9703 144.179 38.7209 144.025 38.4803L142.133 35.6983L141.226 35.6983L141.231 40.5425ZM146.851 38.7835C146.851 39.866 147.661 40.5967 148.867 40.5967C150.074 40.5967 150.884 39.866 150.884 38.7835L150.884 35.6983L149.976 35.6983L149.976 38.778C149.986 38.924 149.964 39.0704 149.91 39.2066C149.856 39.3428 149.773 39.4653 149.666 39.5654C149.558 39.6654 149.43 39.7404 149.29 39.7849C149.15 39.8294 149.002 39.8423 148.856 39.8227C148.716 39.8375 148.574 39.8221 148.44 39.7775C148.306 39.7329 148.184 39.6601 148.081 39.5641C147.977 39.4681 147.896 39.3511 147.843 39.221C147.789 39.091 147.764 38.951 147.769 38.8105L147.769 35.7254L146.851 35.7254L146.851 38.7835ZM152.286 40.5155L153.194 40.5155L153.406 37.8092C153.406 37.4953 153.406 37.0569 153.406 37.0569C153.406 37.0569 153.558 37.5332 153.677 37.8092L154.46 39.6873L155.254 39.6873L156.091 37.82C156.21 37.544 156.357 37.0785 156.357 37.0785C156.357 37.0785 156.357 37.5061 156.357 37.82L156.569 40.5263L157.471 40.5263L157.069 35.7091L156.091 35.7091L155.112 38.0907C155.004 38.3775 154.868 38.7943 154.868 38.7943C154.868 38.7943 154.732 38.3775 154.618 38.0907L153.639 35.7091L152.666 35.7091L152.286 40.5155ZM160.591 38.9567L162.71 38.9567L162.71 38.1989L160.591 38.1989L160.591 38.9567ZM165.569 39.9363C166.036 40.3711 166.654 40.608 167.292 40.5967C168.336 40.5967 168.923 39.9526 168.923 39.184C168.923 37.6468 166.575 37.8579 166.575 37.019C166.575 36.678 166.906 36.4398 167.325 36.4398C167.723 36.46 168.105 36.6081 168.412 36.862L168.809 36.1475C168.398 35.7869 167.867 35.5936 167.319 35.6063C166.357 35.6063 165.64 36.2017 165.64 37.0027C165.64 38.4858 167.999 38.3342 167.999 39.1677C167.999 39.5629 167.656 39.7523 167.276 39.7523C166.815 39.7296 166.375 39.55 166.031 39.2435L165.569 39.9363ZM170.195 40.5155L171.102 40.5155L171.102 35.6983L170.195 35.6983L170.195 40.5155ZM172.716 40.5155L175.782 40.5155L175.782 39.7631L173.608 39.7631L173.608 35.6983L172.7 35.6983L172.716 40.5155ZM177.679 40.5155L178.581 40.5155L180.402 35.6983L179.434 35.6983L178.347 38.8376C178.249 39.119 178.168 39.5466 178.157 39.5466C178.157 39.5466 178.065 39.119 177.967 38.8376L176.88 35.6983L175.901 35.6983L177.679 40.5155ZM181.375 40.5155L184.478 40.5155L184.478 39.7631L182.304 39.7631L182.304 38.4695L183.989 38.4695L183.989 37.7118L182.304 37.7118L182.304 36.4506L184.353 36.4506L184.353 35.6983L181.358 35.6983L181.375 40.5155ZM185.771 40.5155L186.679 40.5155L186.679 38.7402L187.549 38.7402L188.543 40.5371L189.554 40.5371L188.505 38.7402C188.459 38.6545 188.402 38.5746 188.337 38.502C188.594 38.3914 188.812 38.2063 188.962 37.9708C189.112 37.7353 189.188 37.4602 189.179 37.1813C189.194 36.9056 189.123 36.632 188.978 36.397C188.832 36.162 188.618 35.9768 188.364 35.8661C188.042 35.751 187.7 35.7049 187.359 35.7308L185.728 35.7308L185.771 40.5155ZM186.679 37.9607L186.679 36.4506L187.369 36.4506C188.076 36.4506 188.283 36.7375 188.283 37.1976C188.29 37.3016 188.275 37.4061 188.238 37.5037C188.2 37.6012 188.142 37.6894 188.067 37.7622C187.992 37.8349 187.902 37.8904 187.803 37.9247C187.704 37.959 187.599 37.9713 187.494 37.9607L186.679 37.9607Z" fill="#231F20"/>
<path fill-rule="evenodd" clip-rule="evenodd" d="M20.4889 41.4981C15.0882 41.4838 9.91264 39.3417 6.09275 35.5397C2.27286 31.7377 0.11908 26.5848 0.101868 21.2065C0.117633 15.8277 2.26986 10.6736 6.08858 6.86975C9.90729 3.06586 15.0823 0.921187 20.4834 0.904053C25.8846 0.921187 31.0596 3.06586 34.8783 6.86975C38.697 10.6736 40.8492 15.8277 40.865 21.2065C40.8478 26.5829 38.6955 31.7342 34.878 35.5359C31.0604 39.3376 25.8877 41.481 20.4889 41.4981Z" fill="#9F212C"/>
<path fill-rule="evenodd" clip-rule="evenodd" d="M20.4896 41.4987C15.7578 41.5098 11.1687 39.8858 7.50499 36.9037C3.84129 33.9216 1.32995 29.7661 0.399299 25.1459C-0.531352 20.5258 0.176336 15.7272 2.40166 11.5687C4.62698 7.41016 8.23209 4.14923 12.6021 2.3421C16.9721 0.534981 21.8363 0.293604 26.3651 1.65914C30.8938 3.02468 34.8066 5.91255 37.436 9.83019C40.0655 13.7478 41.2487 18.4526 40.7839 23.1419C40.319 27.8313 38.235 32.2149 34.8871 35.5449C32.998 37.431 30.754 38.9277 28.2836 39.9493C25.8131 40.9709 23.1646 41.4974 20.4896 41.4987ZM20.4896 40.6977C25.0372 40.7039 29.4462 39.1384 32.9641 36.2685C36.4821 33.3985 38.891 29.4018 39.78 24.9604C40.6689 20.5189 39.9828 15.9079 37.8386 11.9141C35.6944 7.92024 32.2251 4.79104 28.0226 3.06041C23.8201 1.32978 19.1447 1.10495 14.7943 2.42428C10.4439 3.74361 6.68793 6.52534 4.16732 10.2949C1.64671 14.0644 0.517624 18.5881 0.972703 23.0942C1.42778 27.6003 3.43883 31.8095 6.66272 35.0037C8.47726 36.8133 10.6327 38.2482 13.0055 39.2263C15.3783 40.2043 17.9216 40.7062 20.4896 40.7031" fill="#A0222C"/>
<mask id="mask0_41_3467" style="mask-type:luminance" maskUnits="userSpaceOnUse" x="3" y="4" width="35" height="34">
<path d="M9.78309 16.3241C10.0369 16.3294 10.2834 16.4093 10.4917 16.5537C10.7001 16.6981 10.8609 16.9006 10.9541 17.1357C11.0473 17.3708 11.0686 17.6281 11.0154 17.8753C10.9623 18.1225 10.837 18.3485 10.6552 18.525C10.4735 18.7014 10.2435 18.8205 9.99404 18.8672C9.74459 18.914 9.48683 18.8863 9.25314 18.7876C9.01945 18.6889 8.82023 18.5237 8.68051 18.3127C8.54079 18.1017 8.46679 17.8542 8.46781 17.6015C8.46832 17.3646 8.53412 17.1325 8.65803 16.9303C8.54085 16.9822 8.41608 17.0151 8.28845 17.0277C7.74494 20.3835 11.131 19.734 11.131 19.734C12.3702 19.4255 18.7401 12.2214 18.7401 12.2214L18.251 11.783C17.5009 11.1227 17.952 11.166 17.952 11.166L21.2131 14.0779L20.213 14.0238C17.0552 18.4296 14.1801 19.8206 13.0115 20.2265C7.57645 21.4173 7.57645 17.8342 7.57645 17.8342L3.69037 20.9356C11.3919 26.8894 14.3649 30.2343 15.5117 31.923C15.5149 31.6703 15.593 31.4241 15.7363 31.2154C15.8795 31.0067 16.0815 30.8448 16.3168 30.7501C16.5521 30.6553 16.8103 30.6319 17.0589 30.6828C17.3076 30.7336 17.5356 30.8565 17.7143 31.036C17.8931 31.2155 18.0146 31.4436 18.0636 31.6916C18.1126 31.9397 18.0869 32.1966 17.9898 32.4301C17.8926 32.6637 17.7284 32.8634 17.5177 33.0043C17.3069 33.1452 17.0591 33.221 16.8052 33.222C16.5679 33.2234 16.3347 33.1598 16.1313 33.038C16.1864 33.1517 16.2196 33.2747 16.2291 33.4007C19.6043 33.904 18.914 30.5537 18.914 30.5537C18.5934 29.3196 11.3049 23.014 11.3049 23.014L10.8647 23.5065C10.2016 24.2643 10.2451 23.8096 10.2451 23.8096L13.2344 20.6271L13.2344 20.5567L13.4681 20.6054L13.4681 21.5743C17.3813 24.562 18.9032 27.1979 19.4467 28.4753C20.6587 33.9257 17.0498 33.9257 17.0498 33.9257L20.1424 37.8119C26.1481 30.1369 29.5016 27.1546 31.1973 26.0125C30.9435 26.0093 30.6963 25.9315 30.4867 25.7889C30.2772 25.6462 30.1146 25.4451 30.0195 25.2108C29.9243 24.9764 29.9008 24.7193 29.9519 24.4717C30.003 24.2241 30.1264 23.997 30.3066 23.819C30.4869 23.641 30.7159 23.52 30.9649 23.4712C31.214 23.4224 31.472 23.448 31.7065 23.5447C31.941 23.6414 32.1416 23.805 32.2831 24.0149C32.4246 24.2248 32.5006 24.4716 32.5017 24.7244C32.5056 24.9593 32.4415 25.1905 32.3169 25.3901C32.4341 25.3382 32.5589 25.3053 32.6865 25.2927C33.192 21.9369 29.8277 22.6243 29.8277 22.6243C28.583 22.9436 22.2566 30.2019 22.2566 30.2019L22.7458 30.6403C23.5067 31.2952 23.0501 31.2573 23.0501 31.2573L20.213 28.6106L20.0554 28.0693L20.5989 28.3995C23.1588 24.8597 27.2297 22.3861 27.7243 22.0993L27.7732 22.0668C33.4257 20.8003 33.3605 24.4646 33.3605 24.4646L37.2846 21.4173C29.6266 15.3986 26.6862 12.0374 25.5503 10.3378C25.5449 10.5905 25.4647 10.8361 25.3197 11.0435C25.1747 11.251 24.9714 11.4112 24.7353 11.504C24.4992 11.5968 24.2408 11.618 23.9926 11.5651C23.7444 11.5121 23.5175 11.3873 23.3402 11.2064C23.163 11.0254 23.0435 10.7963 22.9965 10.5479C22.9496 10.2995 22.9774 10.0428 23.0765 9.81007C23.1756 9.57735 23.3415 9.37896 23.5534 9.23982C23.7653 9.10068 24.0138 9.02699 24.2676 9.028C24.5382 9.02113 24.8065 9.07865 25.0502 9.19579C25.0107 9.06533 24.9398 8.94643 24.8437 8.84938C21.474 8.30813 22.1262 11.6801 22.1262 11.6801C22.436 12.9142 29.6701 19.2577 29.6701 19.2577L30.1103 18.776C30.7734 18.0236 30.7299 18.4729 30.7299 18.4729L27.7189 21.6338L27.6373 20.8382C25.0993 19.1197 23.021 16.8103 21.5827 14.1104C19.7891 9.03882 24.4578 8.35684 24.4578 8.35684L20.9304 4.63843C14.8649 12.2755 11.5169 15.1929 9.78309 16.3241Z" fill="white"/>
</mask>
<g mask="url(#mask0_41_3467)">
<path d="M37.2846 4.63843L3.69037 4.63843L3.69037 37.7848L37.2846 37.7848L37.2846 4.63843Z" fill="url(#paint0_linear_41_3467)"/>
</g>
<mask id="mask1_41_3467" style="mask-type:luminance" maskUnits="userSpaceOnUse" x="13" y="14" width="15" height="15">
<path d="M13.2132 20.1426C13.3555 20.3479 13.4528 20.5808 13.4987 20.8261C13.5446 21.0714 13.5381 21.3235 13.4795 21.5661C13.4795 21.5661 17.7298 24.6459 19.4581 28.4671C19.4581 28.4671 19.6049 27.7202 20.6103 28.413C22.5536 25.8775 24.9691 23.7384 27.7249 22.1128L27.6488 20.8625C25.1377 19.097 23.0634 16.7851 21.5832 14.1022L21.2245 14.0589L20.2136 14.0156C20.2136 14.0156 17.0884 18.6596 13.2023 20.1426" fill="white"/>
</mask>
<g mask="url(#mask1_41_3467)">
<path d="M27.7205 14.0156L13.2142 14.0156L13.2142 28.4671L27.7205 28.4671L27.7205 14.0156Z" fill="url(#paint1_linear_41_3467)"/>
</g>
<path d="M24.0163 21.6482C24.0232 21.603 24.0136 21.5569 23.9891 21.5183C23.7309 21.1921 23.5272 20.8266 23.3858 20.4358C23.3369 20.2247 23.3151 19.7213 23.6304 19.651C23.9456 19.5806 24.0978 19.9811 24.0326 20.2463C23.9674 20.5116 24.3587 20.6036 24.4185 20.3546C24.4868 20.1983 24.5058 20.025 24.4728 19.8577C24.4398 19.6904 24.3564 19.5371 24.2337 19.4182C24.1232 19.344 23.9991 19.2924 23.8685 19.2664C23.7379 19.2404 23.6033 19.2405 23.4728 19.2667C23.0988 19.1714 22.7349 19.0409 22.3857 18.877C22.1575 18.7417 21.9401 18.5306 22.027 18.2491C22.0467 18.1552 22.1029 18.0728 22.1833 18.0201C22.2638 17.9673 22.362 17.9485 22.4564 17.9677C22.6792 18.0326 22.6684 18.2816 22.6629 18.4764C22.6709 18.5246 22.6957 18.5684 22.733 18.5999C22.7704 18.6315 22.8178 18.6489 22.8667 18.6489C22.9157 18.6489 22.9631 18.6315 23.0005 18.5999C23.0378 18.5684 23.0626 18.5246 23.0706 18.4764C23.0706 18.0543 22.9727 17.6104 22.489 17.5617C22.3376 17.5463 22.1849 17.5736 22.0484 17.6406C21.9119 17.7077 21.7971 17.8116 21.7172 17.9406L21.6683 17.9406C21.3225 18.1328 20.9338 18.2351 20.5378 18.2383C20.3784 18.2487 20.219 18.2169 20.0758 18.1463C20.0283 18.1222 19.9869 18.0876 19.9547 18.0453C19.9225 18.003 19.9004 17.9539 19.8899 17.9019C19.8794 17.8498 19.881 17.796 19.8943 17.7446C19.9077 17.6932 19.9326 17.6455 19.9671 17.605C20.19 17.5617 20.3041 17.605 20.3095 17.7945C20.324 17.8461 20.3584 17.89 20.4053 17.9164C20.4285 17.9295 20.4541 17.9378 20.4805 17.9411C20.507 17.9443 20.5339 17.9423 20.5596 17.9352C20.5853 17.9281 20.6093 17.916 20.6303 17.8996C20.6513 17.8833 20.6689 17.863 20.682 17.8398C20.6951 17.8167 20.7035 17.7913 20.7068 17.7649C20.71 17.7385 20.708 17.7118 20.7009 17.6862C20.6085 17.329 20.315 16.9393 19.8965 17.145C19.7588 17.2231 19.6483 17.341 19.5794 17.4831C19.5105 17.6251 19.4865 17.7847 19.5106 17.9406C19.2492 18.197 19.0275 18.4907 18.8529 18.812C18.726 19.0459 18.517 19.2251 18.266 19.3154C18.1993 19.3284 18.1305 19.3264 18.0647 19.3095C17.9988 19.2927 17.9376 19.2614 17.8855 19.218C17.8203 19.089 17.8048 18.9407 17.842 18.8012C17.842 18.6821 17.9398 18.6063 18.0975 18.5847C18.2605 18.785 18.5431 18.5035 18.3801 18.3032C17.8094 17.5942 17.005 19.0393 17.679 19.5644L17.7659 19.6293C17.8176 20.0083 17.8176 20.3924 17.7659 20.7714C17.717 21.0149 17.6137 21.3126 17.3094 21.2747C17.1191 21.2747 16.7659 20.9662 17.005 20.793C17.2442 20.6198 17.005 20.2896 16.8039 20.4466C16.2224 20.8796 16.7115 21.7023 17.3474 21.6753L17.4942 21.6753C17.6436 21.941 17.8088 22.1976 17.9888 22.4438C18.1344 22.6319 18.2163 22.8613 18.2225 23.0988C18.2225 23.2395 18.1138 23.483 17.9127 23.4506C17.8529 23.4506 17.6572 23.2124 17.7822 23.1583C18.0159 23.0555 17.8148 22.7091 17.5757 22.8119C17.3366 22.9147 17.2768 23.4235 17.4289 23.64C17.543 23.759 17.6935 23.8369 17.8568 23.8614C18.0201 23.8859 18.187 23.8556 18.3312 23.7753C18.4431 23.7078 18.5292 23.6049 18.5758 23.483L18.6084 23.483C19.0422 23.4808 19.4692 23.5909 19.8476 23.8024C19.9489 23.8889 20.0254 24.0005 20.0693 24.126C20.1132 24.2515 20.123 24.3864 20.0976 24.5168C20.0986 24.6042 20.0761 24.6901 20.0324 24.7658L19.7715 24.9011C19.6139 24.8741 19.7062 24.5926 19.728 24.5114C19.8095 24.2679 19.4182 24.1596 19.3421 24.4086C19.2334 24.755 19.2443 25.1718 19.6628 25.2854C19.7586 25.3031 19.8571 25.3008 19.952 25.2784C20.0469 25.2561 20.136 25.2143 20.2138 25.1557C20.2915 25.0972 20.3561 25.0231 20.4035 24.9382C20.4509 24.8534 20.48 24.7596 20.4889 24.663C20.4889 24.598 20.4889 24.5331 20.4889 24.4735C20.5194 24.4635 20.5472 24.4469 20.5704 24.4248C20.9194 24.0951 21.3242 23.8294 21.7661 23.64C22.0379 23.5263 22.489 23.4073 22.6195 23.824C22.6525 23.9673 22.6312 24.1177 22.5597 24.2462C22.4564 24.4789 22.3042 24.4952 22.1031 24.3003C22.1303 24.0459 21.7281 24.0459 21.7009 24.3003C21.6943 24.3919 21.7111 24.4837 21.7499 24.567C21.7887 24.6503 21.8481 24.7224 21.9226 24.7765C21.997 24.8306 22.0841 24.865 22.1756 24.8764C22.2671 24.8878 22.36 24.8758 22.4455 24.8416C22.6415 24.7627 22.8053 24.6206 22.9107 24.4381C23.0161 24.2556 23.0571 24.0433 23.0271 23.8349C23.017 23.7562 22.995 23.6796 22.9619 23.6075C22.9705 23.5775 22.9705 23.5456 22.9619 23.5155C22.9555 23.1416 23.0354 22.7713 23.1956 22.433C23.288 22.2436 23.4565 22.0217 23.6902 22.0217C23.7661 22.021 23.8396 22.0487 23.8961 22.0992C23.9526 22.1498 23.9881 22.2196 23.9956 22.2949C24.0031 22.3701 23.9821 22.4455 23.9366 22.5061C23.8911 22.5667 23.8246 22.6082 23.7499 22.6224C23.4945 22.6766 23.6032 23.0663 23.8587 23.0122C24.0182 22.9951 24.1672 22.9246 24.2811 22.812C24.395 22.6995 24.467 22.5517 24.4854 22.393C24.5037 22.2342 24.4673 22.074 24.382 21.9386C24.2967 21.8033 24.1678 21.7008 24.0163 21.6482ZM22.8966 22.1894C22.7349 22.5151 22.6337 22.8671 22.5977 23.2287C22.4275 23.1524 22.2394 23.1243 22.0542 23.1475C21.4442 23.2779 20.8864 23.5848 20.4509 24.0297C20.2171 23.3802 19.3638 23.1799 18.6355 23.1096C18.6357 23.0255 18.6248 22.9418 18.6029 22.8606C18.4779 22.3193 18.0594 21.9729 17.8257 21.4966C18.2225 21.134 18.1953 20.3438 18.1518 19.7809C18.7877 19.7809 19.2388 18.812 19.6519 18.3574C20.0541 18.8445 20.9781 18.6659 21.565 18.4331C21.565 19.1151 22.4455 19.3749 23.0597 19.5752C22.9417 19.8305 22.8966 20.1133 22.9293 20.3925C23.036 20.8416 23.2421 21.2614 23.5325 21.6211C23.388 21.6584 23.2531 21.7259 23.1369 21.8193C23.0207 21.9126 22.9258 22.0296 22.8586 22.1624" fill="#9F212C"/>
<path d="M23.7121 18.7146C23.7121 18.7758 23.694 18.8355 23.6599 18.8864C23.6259 18.9372 23.5775 18.9768 23.5209 19.0002C23.4643 19.0236 23.402 19.0297 23.3419 19.0178C23.2818 19.0059 23.2266 18.9764 23.1833 18.9332C23.1399 18.89 23.1104 18.8349 23.0985 18.7749C23.0865 18.715 23.0927 18.6528 23.1161 18.5963C23.1396 18.5399 23.1793 18.4916 23.2302 18.4576C23.2812 18.4236 23.3411 18.4055 23.4023 18.4055C23.4841 18.4069 23.562 18.4399 23.6198 18.4976C23.6776 18.5553 23.7107 18.6331 23.7121 18.7146Z" fill="#9F212C"/>
<path d="M24.6197 21.2935C24.6204 21.3343 24.6129 21.3748 24.5976 21.4126C24.5823 21.4505 24.5595 21.4848 24.5306 21.5137C24.5017 21.5425 24.4673 21.5653 24.4293 21.5805C24.3914 21.5958 24.3508 21.6033 24.3099 21.6026C24.2662 21.6084 24.2217 21.6048 24.1794 21.5921C24.1371 21.5794 24.0981 21.5578 24.0649 21.5288C24.0317 21.4997 24.0051 21.464 23.9868 21.4239C23.9686 21.3838 23.9592 21.3402 23.9592 21.2962C23.9592 21.2521 23.9686 21.2086 23.9868 21.1685C24.0051 21.1284 24.0317 21.0926 24.0649 21.0636C24.0981 21.0346 24.1371 21.013 24.1794 21.0003C24.2217 20.9875 24.2662 20.984 24.3099 20.9898C24.3503 20.9891 24.3905 20.9964 24.4281 21.0113C24.4656 21.0263 24.4998 21.0485 24.5287 21.0768C24.5575 21.1051 24.5804 21.1388 24.596 21.176C24.6117 21.2132 24.6197 21.2531 24.6197 21.2935Z" fill="#9F212C"/>
<path d="M23.6705 23.7491C23.6705 23.831 23.6379 23.9097 23.5798 23.9676C23.5217 24.0256 23.4429 24.0582 23.3607 24.0582C23.3198 24.0589 23.2792 24.0514 23.2413 24.0361C23.2034 24.0209 23.1689 23.9981 23.14 23.9693C23.1111 23.9404 23.0883 23.9061 23.073 23.8682C23.0577 23.8304 23.0502 23.7899 23.0509 23.7491C23.0509 23.6671 23.0835 23.5884 23.1416 23.5305C23.1997 23.4725 23.2785 23.4399 23.3607 23.4399C23.4424 23.4413 23.5204 23.4744 23.5782 23.532C23.636 23.5897 23.6691 23.6675 23.6705 23.7491Z" fill="#9F212C"/>
<path d="M21.3382 25.0721C21.3382 25.1332 21.32 25.193 21.286 25.2438C21.2519 25.2946 21.2035 25.3342 21.1469 25.3576C21.0903 25.381 21.028 25.3872 20.9679 25.3752C20.9078 25.3633 20.8526 25.3339 20.8093 25.2906C20.766 25.2474 20.7365 25.1923 20.7245 25.1324C20.7126 25.0724 20.7187 25.0102 20.7421 24.9538C20.7656 24.8973 20.8053 24.849 20.8563 24.815C20.9072 24.7811 20.9671 24.7629 21.0284 24.7629C21.1105 24.7629 21.1893 24.7955 21.2474 24.8535C21.3055 24.9114 21.3382 24.9901 21.3382 25.0721Z" fill="#9F212C"/>
<path d="M18.7235 24.5393C18.7235 24.6213 18.6909 24.6999 18.6328 24.7579C18.5747 24.8159 18.4959 24.8485 18.4137 24.8485C18.3316 24.8485 18.2528 24.8159 18.1947 24.7579C18.1366 24.6999 18.1039 24.6213 18.1039 24.5393C18.1039 24.4574 18.1366 24.3787 18.1947 24.3208C18.2528 24.2628 18.3316 24.2302 18.4137 24.2302C18.4959 24.2302 18.5747 24.2628 18.6328 24.3208C18.6909 24.3787 18.7235 24.4574 18.7235 24.5393Z" fill="#9F212C"/>
<path d="M16.9513 22.5548C16.9513 22.6161 16.933 22.6761 16.8987 22.7271C16.8644 22.778 16.8157 22.8176 16.7588 22.8408C16.7019 22.8641 16.6393 22.8699 16.5791 22.8575C16.5188 22.8451 16.4636 22.8151 16.4205 22.7714C16.3774 22.7276 16.3484 22.672 16.337 22.6117C16.3257 22.5514 16.3326 22.489 16.3569 22.4327C16.3812 22.3763 16.4217 22.3284 16.4734 22.2951C16.525 22.2618 16.5855 22.2446 16.647 22.2457C16.7282 22.2471 16.8056 22.2803 16.8625 22.3381C16.9194 22.3959 16.9513 22.4737 16.9513 22.5548Z" fill="#9F212C"/>
<path d="M16.9951 19.8494C16.9951 19.9314 16.9624 20.01 16.9043 20.068C16.8462 20.1259 16.7674 20.1585 16.6853 20.1585C16.6444 20.1593 16.6038 20.1518 16.5659 20.1365C16.5279 20.1212 16.4935 20.0985 16.4646 20.0696C16.4357 20.0408 16.4129 20.0064 16.3976 19.9686C16.3822 19.9307 16.3747 19.8902 16.3755 19.8494C16.3755 19.7674 16.4081 19.6888 16.4662 19.6308C16.5243 19.5729 16.6031 19.5403 16.6853 19.5403C16.767 19.5417 16.845 19.5747 16.9028 19.6324C16.9606 19.69 16.9937 19.7679 16.9951 19.8494Z" fill="#9F212C"/>
<path d="M18.7458 17.7896C18.7458 17.8507 18.7276 17.9105 18.6935 17.9613C18.6595 18.0122 18.6111 18.0518 18.5545 18.0752C18.4979 18.0986 18.4356 18.1047 18.3755 18.0928C18.3154 18.0808 18.2602 18.0514 18.2169 18.0082C18.1736 17.9649 18.1441 17.9099 18.1321 17.8499C18.1202 17.7899 18.1263 17.7278 18.1497 17.6713C18.1732 17.6148 18.2129 17.5665 18.2638 17.5326C18.3148 17.4986 18.3747 17.4805 18.436 17.4805C18.5181 17.4805 18.5969 17.513 18.655 17.571C18.7131 17.629 18.7458 17.7076 18.7458 17.7896Z" fill="#9F212C"/>
<path d="M21.4088 17.3216C21.4074 17.4032 21.3743 17.481 21.3165 17.5387C21.2588 17.5963 21.1808 17.6293 21.099 17.6307C21.0169 17.6307 20.9381 17.5982 20.88 17.5402C20.8219 17.4822 20.7892 17.4036 20.7892 17.3216C20.7885 17.2808 20.796 17.2403 20.8113 17.2025C20.8266 17.1646 20.8494 17.1303 20.8783 17.1014C20.9072 17.0725 20.9417 17.0498 20.9796 17.0345C21.0175 17.0193 21.0581 17.0118 21.099 17.0125C21.1812 17.0125 21.26 17.0451 21.3181 17.103C21.3762 17.161 21.4088 17.2396 21.4088 17.3216Z" fill="#9F212C"/>
<defs>
<linearGradient id="paint0_linear_41_3467" x1="3.84723" y1="22.1158" x2="37.4415" y2="22.1158" gradientUnits="userSpaceOnUse">
<stop stop-color="#C4843E"/>
<stop offset="0.18" stop-color="#E7B164"/>
<stop offset="0.32" stop-color="#FFD17F"/>
<stop offset="0.68" stop-color="#FCEB9E"/>
<stop offset="1" stop-color="#F9CE6E"/>
</linearGradient>
<linearGradient id="paint1_linear_41_3467" x1="13.4378" y1="22.4454" x2="27.9441" y2="22.4454" gradientUnits="userSpaceOnUse">
<stop stop-color="#ECBE62"/>
<stop offset="0.13" stop-color="#FFF7D1"/>
<stop offset="0.23" stop-color="#ECBE62"/>
<stop offset="0.35" stop-color="#FEE58B"/>
<stop offset="0.47" stop-color="#FFDAA6"/>
<stop offset="0.59" stop-color="#ECBE62"/>
<stop offset="0.73" stop-color="#FEE58B"/>
<stop offset="0.86" stop-color="#ECBE62"/>
<stop offset="1" stop-color="#FFF7D1"/>
</linearGradient>
</defs>
</svg>
